<svg width="40" height="40" viewBox="0 0 40 40" fill="none" xmlns="http://www.w3.org/2000/svg">
<rect x="0.5" y="0.5" width="39" height="39" rx="19.5" stroke="url(#paint0_linear_104_3759)"/>
<path fill-rule="evenodd" clip-rule="evenodd" d="M12.2443 18.9208C17.103 16.8039 20.3428 15.4084 21.9639 14.7341C26.5924 12.809 27.5542 12.4745 28.1811 12.4635C28.3189 12.4611 28.6272 12.4952 28.8269 12.6573C28.9955 12.7941 29.0419 12.9789 29.0641 13.1086C29.0863 13.2383 29.114 13.5338 29.092 13.7647C28.8412 16.4001 27.7559 22.7955 27.2037 25.7472C26.9701 26.9962 26.5101 27.415 26.0647 27.4559C25.0968 27.545 24.3619 26.8163 23.4245 26.2018C21.9576 25.2403 21.1289 24.6417 19.705 23.7034C18.0595 22.619 19.1262 22.023 20.064 21.049C20.3094 20.7941 24.5739 16.9153 24.6564 16.5634C24.6667 16.5194 24.6763 16.3553 24.5788 16.2687C24.4814 16.1821 24.3376 16.2117 24.2338 16.2353C24.0866 16.2687 21.7433 17.8176 17.2037 20.8819C16.5385 21.3387 15.936 21.5612 15.3962 21.5495C14.8011 21.5367 13.6564 21.2131 12.8055 20.9365C11.7617 20.5972 10.9321 20.4178 11.0044 19.8416C11.042 19.5415 11.4553 19.2345 12.2443 18.9208Z" fill="white"/>
<defs>
<linearGradient id="paint0_linear_104_3759" x1="32.185" y1="40" x2="1.9562" y2="34.9297" gradientUnits="userSpaceOnUse">
<stop stop-color="#8E8282"/>
<stop offset="0.521464"/>
<stop offset="1" stop-color="#493D3D"/>
</linearGradient>
</defs>
</svg>
