<svg width="40" height="40" viewBox="0 0 40 40" fill="none" xmlns="http://www.w3.org/2000/svg">
<rect x="0.5" y="0.5" width="39" height="39" rx="19.5" stroke="url(#paint0_linear_104_3754)"/>
<path fill-rule="evenodd" clip-rule="evenodd" d="M29.6975 23.8335C29.6975 25.8601 28.0489 27.5062 26.0248 27.5062H13.9753C11.9511 27.5062 10.3025 25.8601 10.3025 23.8335V16.1665C10.3025 15.4901 10.4877 14.8548 10.8092 14.3095L16.6886 20.189C17.5682 21.0712 18.7461 21.5573 20.0013 21.5573C21.2538 21.5573 22.4317 21.0712 23.3113 20.189L29.1908 14.3095C29.5123 14.8548 29.6975 15.49 29.6975 16.1665V23.8335H29.6975ZM26.0248 12.4938H13.9753C13.1394 12.4938 12.3678 12.7767 11.7505 13.2473L17.6891 19.1885C18.3038 19.8006 19.1242 20.1401 20.0013 20.1401C20.8757 20.1401 21.6962 19.8006 22.3108 19.1885L28.2494 13.2473C27.6322 12.7767 26.8607 12.4938 26.0248 12.4938ZM26.0248 11.0767H13.9753C11.1693 11.0767 8.88538 13.3606 8.88538 16.1665V23.8335C8.88538 26.6421 11.1693 28.9234 13.9753 28.9234H26.0248C28.8307 28.9234 31.1146 26.6421 31.1146 23.8335V16.1665C31.1146 13.3605 28.8307 11.0767 26.0248 11.0767Z" fill="white"/>
<defs>
<linearGradient id="paint0_linear_104_3754" x1="32.185" y1="40" x2="1.9562" y2="34.9297" gradientUnits="userSpaceOnUse">
<stop stop-color="#8E8282"/>
<stop offset="0.521464"/>
<stop offset="1" stop-color="#493D3D"/>
</linearGradient>
</defs>
</svg>
