<svg width="84" height="84" viewBox="0 0 84 84" fill="none" xmlns="http://www.w3.org/2000/svg">
<g filter="url(#filter0_diii_163_3114)">
<g clip-path="url(#clip0_163_3114)">
<g clip-path="url(#clip1_163_3114)">
<mask id="mask0_163_3114" style="mask-type:luminance" maskUnits="userSpaceOnUse" x="10" y="4" width="64" height="64">
<path d="M74 4H10V68H74V4Z" fill="white"/>
</mask>
<g mask="url(#mask0_163_3114)">
<path d="M74 4H10V68H74V4Z" fill="#FFC933" fill-opacity="0.04"/>
<g opacity="0.48" filter="url(#filter1_f_163_3114)">
<path d="M42 76C53.0457 76 62 72.4183 62 68C62 63.5817 53.0457 60 42 60C30.9543 60 22 63.5817 22 68C22 72.4183 30.9543 76 42 76Z" fill="#FFC933"/>
</g>
<g opacity="0.64" filter="url(#filter2_f_163_3114)">
<path d="M42 48C48.6274 48 54 42.6274 54 36C54 29.3726 48.6274 24 42 24C35.3726 24 30 29.3726 30 36C30 42.6274 35.3726 48 42 48Z" fill="#FFC933"/>
</g>
</g>
<g clip-path="url(#clip2_163_3114)">
<path d="M48.9489 47.7752C48.2795 47.4768 47.6889 47.0264 47.2241 46.4598C46.7594 45.8931 46.4333 45.2258 46.2717 44.5109C46.2566 44.446 46.221 44.3876 46.1702 44.3444C45.6688 43.9108 45.2486 43.3915 44.9291 42.8108C44.8029 42.5882 44.7424 42.3343 44.7547 42.0787C44.767 41.8231 44.8515 41.5763 44.9985 41.3668C45.1454 41.1573 45.3488 40.9938 45.585 40.8952C45.8211 40.7967 46.0804 40.7671 46.3327 40.81C46.4961 40.8397 46.6624 40.8499 46.8283 40.8405C46.873 40.8378 46.9165 40.8253 46.9559 40.8039C46.9952 40.7825 47.0293 40.7527 47.0558 40.7166C47.6975 39.8387 48.6319 39.2191 49.6903 38.9697C49.7564 38.9538 49.8152 38.9161 49.8572 38.8626C49.8993 38.8092 49.922 38.7431 49.9219 38.6752V36.453C49.9218 36.3795 49.8953 36.3084 49.8472 36.2529C49.7991 36.1973 49.7326 36.1609 49.6598 36.1503C49.4831 36.1239 49.3267 36.0955 49.1825 36.0609C48.5789 35.9151 48.0065 35.6619 47.4925 35.3134C47.4365 35.2734 47.3681 35.2546 47.2995 35.2606C46.5538 35.3037 45.8065 35.2115 45.0936 34.9884C43.9725 34.6986 43.7231 33.0884 44.7036 32.4717C44.8919 32.3443 45.0626 32.1927 45.2114 32.0208C45.2405 31.9879 45.262 31.949 45.2743 31.9069C45.2866 31.8647 45.2894 31.8204 45.2825 31.777C45.1449 30.8136 45.2815 29.8308 45.6766 28.9414C46.0278 28.1416 46.5779 27.4449 47.2744 26.9177C47.9709 26.3904 48.7906 26.0501 49.6558 25.9291C49.7308 25.918 49.799 25.8795 49.847 25.8209C49.8951 25.7623 49.9196 25.6879 49.9158 25.6122C49.8839 24.9082 49.5816 24.2437 49.0719 23.757C48.5622 23.2704 47.8844 22.9992 47.1797 23H36.8203C36.0934 23.0011 35.3965 23.2903 34.8825 23.8044C34.3685 24.3184 34.0792 25.0152 34.0781 25.7422V30.2719C34.0786 30.3145 34.0879 30.3565 34.1054 30.3953C34.123 30.4342 34.1484 30.4689 34.1801 30.4974C34.2119 30.5258 34.2491 30.5474 34.2896 30.5607C34.3301 30.574 34.3729 30.5787 34.4153 30.5745C34.6481 30.5498 34.882 30.5369 35.1161 30.5359C36.4006 30.5371 37.6577 30.908 38.7371 31.6042C39.8166 32.3005 40.6729 33.2927 41.2038 34.4623C41.2212 34.5015 41.2466 34.5366 41.2785 34.5653C41.3103 34.594 41.3478 34.6156 41.3886 34.6289C41.7801 34.7572 42.1893 34.823 42.6012 34.8239C42.9008 34.8253 43.1939 34.9114 43.4467 35.0721C43.6995 35.2329 43.9016 35.4619 44.0299 35.7326C44.1582 36.0034 44.2073 36.3049 44.1716 36.6023C44.1359 36.8998 44.0168 37.1811 43.8281 37.4138C43.1946 38.218 42.4101 38.8908 41.5186 39.3942C41.4534 39.4283 41.4034 39.4855 41.3784 39.5547C40.9022 40.8332 40.0457 41.9352 38.9243 42.7124C37.8029 43.4895 36.4703 43.9046 35.1059 43.9016C34.8752 43.8997 34.6447 43.8862 34.4153 43.8609C34.3729 43.8569 34.3301 43.8616 34.2897 43.8749C34.2492 43.8882 34.212 43.9098 34.1803 43.9382C34.1486 43.9667 34.1231 44.0014 34.1056 44.0402C34.088 44.079 34.0786 44.121 34.0781 44.1636V46.2578C34.0792 46.9848 34.3685 47.6816 34.8825 48.1956C35.3965 48.7097 36.0934 48.9989 36.8203 49H47.1797C47.8655 49.0001 48.5262 48.7419 49.0302 48.2769C49.0672 48.2427 49.0951 48.2 49.1116 48.1524C49.128 48.1048 49.1324 48.0539 49.1244 48.0042C49.1163 47.9545 49.0961 47.9075 49.0655 47.8676C49.0348 47.8276 48.9948 47.7959 48.9489 47.7752ZM40.0906 25.2344C39.8575 25.2271 39.6307 25.1568 39.4343 25.0309C39.238 24.905 39.0794 24.7282 38.9755 24.5194L38.488 23.6094H45.5141L45.0245 24.5194C44.9206 24.7282 44.762 24.905 44.5657 25.0309C44.3693 25.1568 44.1425 25.2271 43.9094 25.2344H40.0906ZM44.1328 46.3594H39.8672C39.7864 46.3594 39.7089 46.3273 39.6517 46.2701C39.5946 46.213 39.5625 46.1355 39.5625 46.0547C39.5625 45.9739 39.5946 45.8964 39.6517 45.8392C39.7089 45.7821 39.7864 45.75 39.8672 45.75H44.1328C44.2136 45.75 44.2911 45.7821 44.3483 45.8392C44.4054 45.8964 44.4375 45.9739 44.4375 46.0547C44.4375 46.1355 44.4054 46.213 44.3483 46.2701C44.2911 46.3273 44.2136 46.3594 44.1328 46.3594Z" fill="#FFC933"/>
<path d="M48.9489 47.7752C48.2795 47.4768 47.6889 47.0264 47.2241 46.4598C46.7594 45.8931 46.4333 45.2258 46.2717 44.5109C46.2566 44.446 46.221 44.3876 46.1702 44.3444C45.6688 43.9108 45.2486 43.3915 44.9291 42.8108C44.8029 42.5882 44.7424 42.3343 44.7547 42.0787C44.767 41.8231 44.8515 41.5763 44.9985 41.3668C45.1454 41.1573 45.3488 40.9938 45.585 40.8952C45.8211 40.7967 46.0804 40.7671 46.3327 40.81C46.4961 40.8397 46.6624 40.8499 46.8283 40.8405C46.873 40.8378 46.9165 40.8253 46.9559 40.8039C46.9952 40.7825 47.0293 40.7527 47.0558 40.7166C47.6975 39.8387 48.6319 39.2191 49.6903 38.9697C49.7564 38.9538 49.8152 38.9161 49.8572 38.8626C49.8993 38.8092 49.922 38.7431 49.9219 38.6752V36.453C49.9218 36.3795 49.8953 36.3084 49.8472 36.2529C49.7991 36.1973 49.7326 36.1609 49.6598 36.1503C49.4831 36.1239 49.3267 36.0955 49.1825 36.0609C48.5789 35.9151 48.0065 35.6619 47.4925 35.3134C47.4365 35.2734 47.3681 35.2546 47.2995 35.2606C46.5538 35.3037 45.8065 35.2115 45.0936 34.9884C43.9725 34.6986 43.7231 33.0884 44.7036 32.4717C44.8919 32.3443 45.0626 32.1927 45.2114 32.0208C45.2405 31.9879 45.262 31.949 45.2743 31.9069C45.2866 31.8647 45.2894 31.8204 45.2825 31.777C45.1449 30.8136 45.2815 29.8308 45.6766 28.9414C46.0278 28.1416 46.5779 27.4449 47.2744 26.9177C47.9709 26.3904 48.7906 26.0501 49.6558 25.9291C49.7308 25.918 49.799 25.8795 49.847 25.8209C49.8951 25.7623 49.9196 25.6879 49.9158 25.6122C49.8839 24.9082 49.5816 24.2437 49.0719 23.757C48.5622 23.2704 47.8844 22.9992 47.1797 23H36.8203C36.0934 23.0011 35.3965 23.2903 34.8825 23.8044C34.3685 24.3184 34.0792 25.0152 34.0781 25.7422V30.2719C34.0786 30.3145 34.0879 30.3565 34.1054 30.3953C34.123 30.4342 34.1484 30.4689 34.1801 30.4974C34.2119 30.5258 34.2491 30.5474 34.2896 30.5607C34.3301 30.574 34.3729 30.5787 34.4153 30.5745C34.6481 30.5498 34.882 30.5369 35.1161 30.5359C36.4006 30.5371 37.6577 30.908 38.7371 31.6042C39.8166 32.3005 40.6729 33.2927 41.2038 34.4623C41.2212 34.5015 41.2466 34.5366 41.2785 34.5653C41.3103 34.594 41.3478 34.6156 41.3886 34.6289C41.7801 34.7572 42.1893 34.823 42.6012 34.8239C42.9008 34.8253 43.1939 34.9114 43.4467 35.0721C43.6995 35.2329 43.9016 35.4619 44.0299 35.7326C44.1582 36.0034 44.2073 36.3049 44.1716 36.6023C44.1359 36.8998 44.0168 37.1811 43.8281 37.4138C43.1946 38.218 42.4101 38.8908 41.5186 39.3942C41.4534 39.4283 41.4034 39.4855 41.3784 39.5547C40.9022 40.8332 40.0457 41.9352 38.9243 42.7124C37.8029 43.4895 36.4703 43.9046 35.1059 43.9016C34.8752 43.8997 34.6447 43.8862 34.4153 43.8609C34.3729 43.8569 34.3301 43.8616 34.2897 43.8749C34.2492 43.8882 34.212 43.9098 34.1803 43.9382C34.1486 43.9667 34.1231 44.0014 34.1056 44.0402C34.088 44.079 34.0786 44.121 34.0781 44.1636V46.2578C34.0792 46.9848 34.3685 47.6816 34.8825 48.1956C35.3965 48.7097 36.0934 48.9989 36.8203 49H47.1797C47.8655 49.0001 48.5262 48.7419 49.0302 48.2769C49.0672 48.2427 49.0951 48.2 49.1116 48.1524C49.128 48.1048 49.1324 48.0539 49.1244 48.0042C49.1163 47.9545 49.0961 47.9075 49.0655 47.8676C49.0348 47.8276 48.9948 47.7959 48.9489 47.7752ZM40.0906 25.2344C39.8575 25.2271 39.6307 25.1568 39.4343 25.0309C39.238 24.905 39.0794 24.7282 38.9755 24.5194L38.488 23.6094H45.5141L45.0245 24.5194C44.9206 24.7282 44.762 24.905 44.5657 25.0309C44.3693 25.1568 44.1425 25.2271 43.9094 25.2344H40.0906ZM44.1328 46.3594H39.8672C39.7864 46.3594 39.7089 46.3273 39.6517 46.2701C39.5946 46.213 39.5625 46.1355 39.5625 46.0547C39.5625 45.9739 39.5946 45.8964 39.6517 45.8392C39.7089 45.7821 39.7864 45.75 39.8672 45.75H44.1328C44.2136 45.75 44.2911 45.7821 44.3483 45.8392C44.4054 45.8964 44.4375 45.9739 44.4375 46.0547C44.4375 46.1355 44.4054 46.213 44.3483 46.2701C44.2911 46.3273 44.2136 46.3594 44.1328 46.3594Z" fill="#FFC933"/>
<path d="M50.4263 43.9219H51.2311L51.4488 43.1094H50.644L50.4263 43.9219Z" fill="#FFC933"/>
<path d="M50.4263 43.9219H51.2311L51.4488 43.1094H50.644L50.4263 43.9219Z" fill="#FFC933"/>
<path d="M49.2755 39.7384C48.4805 40.0578 47.8094 40.6247 47.3617 41.3552C47.3549 41.3659 47.346 41.375 47.3355 41.382C47.325 41.389 47.3132 41.3937 47.3008 41.3959C46.9465 41.4677 46.5819 41.4733 46.2256 41.4123C46.0875 41.3889 45.9455 41.4051 45.8162 41.4591C45.6869 41.5131 45.5756 41.6027 45.4952 41.7175C45.4148 41.8322 45.3687 41.9675 45.3621 42.1074C45.3555 42.2474 45.3888 42.3864 45.458 42.5082C45.7831 43.11 46.2333 43.6352 46.7783 44.0485C46.7878 44.0551 46.7959 44.0635 46.8021 44.0732C46.8083 44.0829 46.8125 44.0938 46.8145 44.1051C47.1003 46.0641 48.9442 47.6141 50.8691 47.593C51.606 47.5846 52.3267 47.3758 52.9539 46.9889C53.5812 46.602 54.0913 46.0517 54.4295 45.3969C54.7677 44.7421 54.9213 44.0076 54.8737 43.2722C54.8262 42.5368 54.5794 41.8282 54.1597 41.2224C53.6329 40.4597 52.8634 39.8979 51.9765 39.6284C51.0896 39.3589 50.1376 39.3977 49.2755 39.7384ZM52.6641 43.1102H52.0797L51.8621 43.9227H52.4609C52.5418 43.9227 52.6193 43.9548 52.6764 44.012C52.7335 44.0691 52.7656 44.1466 52.7656 44.2274C52.7656 44.3082 52.7335 44.3857 52.6764 44.4429C52.6193 44.5 52.5418 44.5321 52.4609 44.5321H51.6988L51.504 45.2587C51.4937 45.2974 51.4758 45.3336 51.4514 45.3654C51.427 45.3972 51.3966 45.4238 51.362 45.4438C51.3273 45.4639 51.289 45.4769 51.2493 45.4821C51.2096 45.4873 51.1693 45.4847 51.1306 45.4743C51.0919 45.4639 51.0556 45.4461 51.0239 45.4217C50.9921 45.3973 50.9655 45.3669 50.9454 45.3322C50.9254 45.2976 50.9124 45.2593 50.9072 45.2196C50.902 45.1799 50.9046 45.1395 50.915 45.1009L51.0673 44.5321H50.2625L50.0655 45.2676C50.0551 45.3063 50.0373 45.3426 50.0129 45.3743C49.9885 45.4061 49.9581 45.4328 49.9234 45.4528C49.8888 45.4728 49.8505 45.4858 49.8108 45.491C49.7711 45.4963 49.7307 45.4936 49.692 45.4832C49.6534 45.4729 49.6171 45.455 49.5853 45.4306C49.5536 45.4063 49.5269 45.3759 49.5069 45.3412C49.4869 45.3065 49.4739 45.2682 49.4687 45.2285C49.4634 45.1888 49.4661 45.1485 49.4764 45.1098L49.6312 44.5321H49.2109C49.1301 44.5321 49.0526 44.5 48.9955 44.4429C48.9384 44.3857 48.9063 44.3082 48.9063 44.2274C48.9063 44.1466 48.9384 44.0691 48.9955 44.012C49.0526 43.9548 49.1301 43.9227 49.2109 43.9227H49.7953L50.0129 43.1102H49.4141C49.3333 43.1102 49.2558 43.0781 49.1986 43.021C49.1415 42.9639 49.1094 42.8864 49.1094 42.8056C49.1094 42.7247 49.1415 42.6472 49.1986 42.5901C49.2558 42.533 49.3333 42.5009 49.4141 42.5009H50.1762L50.371 41.7743C50.3919 41.6962 50.443 41.6296 50.5131 41.5891C50.5831 41.5487 50.6663 41.5377 50.7444 41.5587C50.8226 41.5796 50.8892 41.6307 50.9296 41.7007C50.97 41.7708 50.981 41.854 50.9601 41.9321L50.8077 42.5009H51.6125L51.8095 41.7653C51.8199 41.7267 51.8378 41.6904 51.8621 41.6586C51.8865 41.6269 51.9169 41.6002 51.9516 41.5802C51.9863 41.5602 52.0246 41.5472 52.0643 41.542C52.104 41.5367 52.1443 41.5394 52.183 41.5497C52.2217 41.5601 52.2579 41.578 52.2897 41.6023C52.3214 41.6267 52.3481 41.6571 52.3681 41.6918C52.3881 41.7265 52.4011 41.7648 52.4064 41.8045C52.4116 41.8442 52.409 41.8845 52.3986 41.9232L52.243 42.5009H52.6641C52.7449 42.5009 52.8224 42.533 52.8795 42.5901C52.9367 42.6472 52.9688 42.7247 52.9688 42.8056C52.9688 42.8864 52.9367 42.9639 52.8795 43.021C52.8224 43.0781 52.7449 43.1102 52.6641 43.1102Z" fill="#FFC933"/>
<path d="M49.2755 39.7384C48.4805 40.0578 47.8094 40.6247 47.3617 41.3552C47.3549 41.3659 47.346 41.375 47.3355 41.382C47.325 41.389 47.3132 41.3937 47.3008 41.3959C46.9465 41.4677 46.5819 41.4733 46.2256 41.4123C46.0875 41.3889 45.9455 41.4051 45.8162 41.4591C45.6869 41.5131 45.5756 41.6027 45.4952 41.7175C45.4148 41.8322 45.3687 41.9675 45.3621 42.1074C45.3555 42.2474 45.3888 42.3864 45.458 42.5082C45.7831 43.11 46.2333 43.6352 46.7783 44.0485C46.7878 44.0551 46.7959 44.0635 46.8021 44.0732C46.8083 44.0829 46.8125 44.0938 46.8145 44.1051C47.1003 46.0641 48.9442 47.6141 50.8691 47.593C51.606 47.5846 52.3267 47.3758 52.9539 46.9889C53.5812 46.602 54.0913 46.0517 54.4295 45.3969C54.7677 44.7421 54.9213 44.0076 54.8737 43.2722C54.8262 42.5368 54.5794 41.8282 54.1597 41.2224C53.6329 40.4597 52.8634 39.8979 51.9765 39.6284C51.0896 39.3589 50.1376 39.3977 49.2755 39.7384ZM52.6641 43.1102H52.0797L51.8621 43.9227H52.4609C52.5418 43.9227 52.6193 43.9548 52.6764 44.012C52.7335 44.0691 52.7656 44.1466 52.7656 44.2274C52.7656 44.3082 52.7335 44.3857 52.6764 44.4429C52.6193 44.5 52.5418 44.5321 52.4609 44.5321H51.6988L51.504 45.2587C51.4937 45.2974 51.4758 45.3336 51.4514 45.3654C51.427 45.3972 51.3966 45.4238 51.362 45.4438C51.3273 45.4639 51.289 45.4769 51.2493 45.4821C51.2096 45.4873 51.1693 45.4847 51.1306 45.4743C51.0919 45.4639 51.0556 45.4461 51.0239 45.4217C50.9921 45.3973 50.9655 45.3669 50.9454 45.3322C50.9254 45.2976 50.9124 45.2593 50.9072 45.2196C50.902 45.1799 50.9046 45.1395 50.915 45.1009L51.0673 44.5321H50.2625L50.0655 45.2676C50.0551 45.3063 50.0373 45.3426 50.0129 45.3743C49.9885 45.4061 49.9581 45.4328 49.9234 45.4528C49.8888 45.4728 49.8505 45.4858 49.8108 45.491C49.7711 45.4963 49.7307 45.4936 49.692 45.4832C49.6534 45.4729 49.6171 45.455 49.5853 45.4306C49.5536 45.4063 49.5269 45.3759 49.5069 45.3412C49.4869 45.3065 49.4739 45.2682 49.4687 45.2285C49.4634 45.1888 49.4661 45.1485 49.4764 45.1098L49.6312 44.5321H49.2109C49.1301 44.5321 49.0526 44.5 48.9955 44.4429C48.9384 44.3857 48.9063 44.3082 48.9063 44.2274C48.9063 44.1466 48.9384 44.0691 48.9955 44.012C49.0526 43.9548 49.1301 43.9227 49.2109 43.9227H49.7953L50.0129 43.1102H49.4141C49.3333 43.1102 49.2558 43.0781 49.1986 43.021C49.1415 42.9639 49.1094 42.8864 49.1094 42.8056C49.1094 42.7247 49.1415 42.6472 49.1986 42.5901C49.2558 42.533 49.3333 42.5009 49.4141 42.5009H50.1762L50.371 41.7743C50.3919 41.6962 50.443 41.6296 50.5131 41.5891C50.5831 41.5487 50.6663 41.5377 50.7444 41.5587C50.8226 41.5796 50.8892 41.6307 50.9296 41.7007C50.97 41.7708 50.981 41.854 50.9601 41.9321L50.8077 42.5009H51.6125L51.8095 41.7653C51.8199 41.7267 51.8378 41.6904 51.8621 41.6586C51.8865 41.6269 51.9169 41.6002 51.9516 41.5802C51.9863 41.5602 52.0246 41.5472 52.0643 41.542C52.104 41.5367 52.1443 41.5394 52.183 41.5497C52.2217 41.5601 52.2579 41.578 52.2897 41.6023C52.3214 41.6267 52.3481 41.6571 52.3681 41.6918C52.3881 41.7265 52.4011 41.7648 52.4064 41.8045C52.4116 41.8442 52.409 41.8845 52.3986 41.9232L52.243 42.5009H52.6641C52.7449 42.5009 52.8224 42.533 52.8795 42.5901C52.9367 42.6472 52.9688 42.7247 52.9688 42.8056C52.9688 42.8864 52.9367 42.9639 52.8795 43.021C52.8224 43.0781 52.7449 43.1102 52.6641 43.1102Z" fill="#FFC933"/>
<path d="M46.2348 29.1884C45.8418 30.0679 45.7387 31.0496 45.9402 31.9915C45.9443 32.0116 45.9443 32.0323 45.94 32.0523C45.9357 32.0723 45.9274 32.0913 45.9154 32.1079C45.6822 32.4492 45.3877 32.7442 45.0469 32.9779C44.9228 33.0634 44.8253 33.1822 44.7656 33.3205C44.7059 33.4589 44.6864 33.6113 44.7093 33.7602C44.7322 33.9092 44.7966 34.0486 44.8952 34.1627C44.9937 34.2767 45.1224 34.3606 45.2665 34.4049C45.9923 34.6399 46.7604 34.7152 47.5181 34.6255C47.5353 34.6229 47.5529 34.6238 47.5697 34.628C47.5866 34.6323 47.6025 34.6398 47.6164 34.6502C48.4183 35.261 49.3972 35.5939 50.4051 35.5988C53.7439 35.6141 55.9876 31.9609 54.4447 28.9631C52.7114 25.597 47.771 25.7109 46.2348 29.1884ZM50.7086 33.0835C50.6235 33.1318 50.5275 33.1571 50.4297 33.1571C50.3319 33.1571 50.2358 33.1318 50.1508 33.0835C48.9591 32.4061 48.282 31.565 48.3109 30.4988C48.3102 30.3418 48.3404 30.1861 48.3998 30.0408C48.4592 29.8955 48.5467 29.7633 48.6572 29.6517C48.7677 29.5402 48.8991 29.4515 49.0439 29.3908C49.1887 29.33 49.344 29.2984 49.501 29.2977C49.6798 29.2976 49.8562 29.3381 50.0171 29.4161C50.178 29.4941 50.319 29.6076 50.4297 29.748C50.5403 29.6076 50.6814 29.4941 50.8423 29.4161C51.0031 29.3381 51.1796 29.2976 51.3584 29.2977C51.5154 29.2984 51.6707 29.33 51.8155 29.3908C51.9603 29.4515 52.0917 29.5402 52.2022 29.6517C52.3127 29.7633 52.4002 29.8955 52.4596 30.0408C52.519 30.1861 52.5492 30.3418 52.5485 30.4988C52.5783 31.565 51.9003 32.4055 50.7086 33.0835Z" fill="#FFC933"/>
<path d="M40.8828 39.1274C40.8952 39.0913 40.9146 39.058 40.9399 39.0295C40.9652 39.0009 40.9959 38.9777 41.0303 38.9611C41.9363 38.4918 42.7301 37.8321 43.3571 37.0271C43.4724 36.8837 43.545 36.7107 43.5666 36.528C43.5881 36.3452 43.5577 36.1601 43.4788 35.9939C43.4 35.8276 43.2758 35.6869 43.1207 35.588C42.9656 35.489 42.7857 35.4358 42.6017 35.4344C42.0271 35.4314 41.458 35.3218 40.9234 35.111C40.8834 35.096 40.8469 35.0728 40.8161 35.0431C40.7853 35.0134 40.761 34.9777 40.7445 34.9382C40.2622 33.7473 39.414 32.7404 38.3222 32.0629C34.0284 29.3715 28.5217 32.9441 29.089 37.955C29.4243 40.9165 32.1641 43.363 35.1181 43.3012C37.6105 43.3557 40.1254 41.5728 40.8828 39.1274ZM33.6719 39.8036C33.5795 39.8578 33.4743 39.8863 33.3672 39.8863H32.5547C32.3931 39.8863 32.2381 39.8221 32.1238 39.7078C32.0095 39.5935 31.9453 39.4385 31.9453 39.2769V36.23C31.9453 36.0684 32.0095 35.9134 32.1238 35.7992C32.2381 35.6849 32.3931 35.6207 32.5547 35.6207H33.3672C33.4741 35.6205 33.5792 35.6485 33.6719 35.7019V39.8036ZM34.2813 39.5306V35.8813C34.878 35.3276 35.2619 34.2002 35.5177 33.6688C35.9678 32.7328 36.8746 33.9884 36.6529 34.6642C36.5764 34.8982 36.4141 35.6188 36.4141 35.6188C36.8989 35.6188 37.3639 35.8114 37.7068 36.1543C38.0496 36.4971 38.2422 36.9621 38.2422 37.447V38.0563C38.2422 38.5412 38.0496 39.0062 37.7068 39.349C37.3639 39.6919 36.8989 39.8845 36.4141 39.8845H35.2798C35.0906 39.8844 34.904 39.8403 34.7348 39.7557L34.2813 39.5306Z" fill="#FFC933"/>
</g>
</g>
</g>
</g>
<defs>
<filter id="filter0_diii_163_3114" x="0" y="0" width="84" height="84" filterUnits="userSpaceOnUse" color-interpolation-filters="sRGB">
<feFlood flood-opacity="0" result="BackgroundImageFix"/>
<feColorMatrix in="SourceAlpha" type="matrix" values="0 0 0 0 0 0 0 0 0 0 0 0 0 0 0 0 0 0 127 0" result="hardAlpha"/>
<feMorphology radius="6" operator="erode" in="SourceAlpha" result="effect1_dropShadow_163_3114"/>
<feOffset dy="6"/>
<feGaussianBlur stdDeviation="8"/>
<feComposite in2="hardAlpha" operator="out"/>
<feColorMatrix type="matrix" values="0 0 0 0 1 0 0 0 0 0.788235 0 0 0 0 0.2 0 0 0 0.48 0"/>
<feBlend mode="normal" in2="BackgroundImageFix" result="effect1_dropShadow_163_3114"/>
<feBlend mode="normal" in="SourceGraphic" in2="effect1_dropShadow_163_3114" result="shape"/>
<feColorMatrix in="SourceAlpha" type="matrix" values="0 0 0 0 0 0 0 0 0 0 0 0 0 0 0 0 0 0 127 0" result="hardAlpha"/>
<feOffset/>
<feGaussianBlur stdDeviation="6"/>
<feComposite in2="hardAlpha" operator="arithmetic" k2="-1" k3="1"/>
<feColorMatrix type="matrix" values="0 0 0 0 1 0 0 0 0 0.788235 0 0 0 0 0.2 0 0 0 0.12 0"/>
<feBlend mode="normal" in2="shape" result="effect2_innerShadow_163_3114"/>
<feColorMatrix in="SourceAlpha" type="matrix" values="0 0 0 0 0 0 0 0 0 0 0 0 0 0 0 0 0 0 127 0" result="hardAlpha"/>
<feOffset/>
<feGaussianBlur stdDeviation="1.5"/>
<feComposite in2="hardAlpha" operator="arithmetic" k2="-1" k3="1"/>
<feColorMatrix type="matrix" values="0 0 0 0 1 0 0 0 0 0.788235 0 0 0 0 0.2 0 0 0 0.24 0"/>
<feBlend mode="normal" in2="effect2_innerShadow_163_3114" result="effect3_innerShadow_163_3114"/>
<feColorMatrix in="SourceAlpha" type="matrix" values="0 0 0 0 0 0 0 0 0 0 0 0 0 0 0 0 0 0 127 0" result="hardAlpha"/>
<feOffset/>
<feGaussianBlur stdDeviation="0.5"/>
<feComposite in2="hardAlpha" operator="arithmetic" k2="-1" k3="1"/>
<feColorMatrix type="matrix" values="0 0 0 0 1 0 0 0 0 0.788235 0 0 0 0 0.2 0 0 0 0.64 0"/>
<feBlend mode="normal" in2="effect3_innerShadow_163_3114" result="effect4_innerShadow_163_3114"/>
</filter>
<filter id="filter1_f_163_3114" x="8.66666" y="46.6667" width="66.6667" height="42.6667" filterUnits="userSpaceOnUse" color-interpolation-filters="sRGB">
<feFlood flood-opacity="0" result="BackgroundImageFix"/>
<feBlend mode="normal" in="SourceGraphic" in2="BackgroundImageFix" result="shape"/>
<feGaussianBlur stdDeviation="6.66667" result="effect1_foregroundBlur_163_3114"/>
</filter>
<filter id="filter2_f_163_3114" x="10" y="4" width="64" height="64" filterUnits="userSpaceOnUse" color-interpolation-filters="sRGB">
<feFlood flood-opacity="0" result="BackgroundImageFix"/>
<feBlend mode="normal" in="SourceGraphic" in2="BackgroundImageFix" result="shape"/>
<feGaussianBlur stdDeviation="10" result="effect1_foregroundBlur_163_3114"/>
</filter>
<clipPath id="clip0_163_3114">
<rect x="10" y="4" width="64" height="64" rx="16" fill="white"/>
</clipPath>
<clipPath id="clip1_163_3114">
<rect width="64" height="64" fill="white" transform="translate(10 4)"/>
</clipPath>
<clipPath id="clip2_163_3114">
<rect width="26" height="26" fill="white" transform="translate(29 23)"/>
</clipPath>
</defs>
</svg>
