<svg width="84" height="84" viewBox="0 0 84 84" fill="none" xmlns="http://www.w3.org/2000/svg">
<g filter="url(#filter0_diii_163_3126)">
<g clip-path="url(#clip0_163_3126)">
<g clip-path="url(#clip1_163_3126)">
<mask id="mask0_163_3126" style="mask-type:luminance" maskUnits="userSpaceOnUse" x="10" y="4" width="64" height="64">
<path d="M74 4H10V68H74V4Z" fill="white"/>
</mask>
<g mask="url(#mask0_163_3126)">
<path d="M74 4H10V68H74V4Z" fill="#FFC933" fill-opacity="0.04"/>
<g opacity="0.48" filter="url(#filter1_f_163_3126)">
<path d="M42 76C53.0457 76 62 72.4183 62 68C62 63.5817 53.0457 60 42 60C30.9543 60 22 63.5817 22 68C22 72.4183 30.9543 76 42 76Z" fill="#FFC933"/>
</g>
<g opacity="0.64" filter="url(#filter2_f_163_3126)">
<path d="M42 48C48.6274 48 54 42.6274 54 36C54 29.3726 48.6274 24 42 24C35.3726 24 30 29.3726 30 36C30 42.6274 35.3726 48 42 48Z" fill="#FFC933"/>
</g>
</g>
<path d="M47.6691 39.6053C47.489 38.3817 46.8763 37.2632 45.9421 36.4526C45.008 35.6421 43.8142 35.1932 42.5774 35.1875H41.4247C40.188 35.1932 38.9942 35.6421 38.06 36.4526C37.1259 37.2632 36.5132 38.3817 36.3331 39.6053L35.7806 43.4685C35.7629 43.5934 35.7746 43.7206 35.8146 43.8402C35.8547 43.9598 35.922 44.0684 36.0113 44.1575C36.228 44.3742 37.5572 45.4792 42.0022 45.4792C46.4471 45.4792 47.7731 44.3785 47.993 44.1575C48.0823 44.0684 48.1496 43.9598 48.1897 43.8402C48.2297 43.7206 48.2414 43.5934 48.2237 43.4685L47.6691 39.6053Z" fill="#FFC933"/>
<path d="M47.6691 39.6053C47.489 38.3817 46.8763 37.2632 45.9421 36.4526C45.008 35.6421 43.8142 35.1932 42.5774 35.1875H41.4247C40.188 35.1932 38.9942 35.6421 38.06 36.4526C37.1259 37.2632 36.5132 38.3817 36.3331 39.6053L35.7806 43.4685C35.7629 43.5934 35.7746 43.7206 35.8146 43.8402C35.8547 43.9598 35.922 44.0684 36.0113 44.1575C36.228 44.3742 37.5572 45.4792 42.0022 45.4792C46.4471 45.4792 47.7731 44.3785 47.993 44.1575C48.0823 44.0684 48.1496 43.9598 48.1897 43.8402C48.2297 43.7206 48.2414 43.5934 48.2237 43.4685L47.6691 39.6053Z" fill="#FFC933"/>
<path d="M37.19 35.7835C36.143 36.7487 35.4618 38.0461 35.2617 39.456L34.8608 42.2293C31.6433 42.2076 30.6683 41.0376 30.5058 40.7993C30.443 40.7127 30.3982 40.6144 30.374 40.5102C30.3498 40.406 30.3468 40.298 30.365 40.1926L30.6033 38.8493C30.7275 38.1472 31.0191 37.4855 31.4535 36.9201C31.8879 36.3548 32.4522 35.9025 33.0985 35.6016C33.7449 35.3008 34.4543 35.1602 35.1665 35.1919C35.8788 35.2235 36.5729 35.4265 37.19 35.7835Z" fill="#FFC933"/>
<path d="M37.19 35.7835C36.143 36.7487 35.4618 38.0461 35.2617 39.456L34.8608 42.2293C31.6433 42.2076 30.6683 41.0376 30.5058 40.7993C30.443 40.7127 30.3982 40.6144 30.374 40.5102C30.3498 40.406 30.3468 40.298 30.365 40.1926L30.6033 38.8493C30.7275 38.1472 31.0191 37.4855 31.4535 36.9201C31.8879 36.3548 32.4522 35.9025 33.0985 35.6016C33.7449 35.3008 34.4543 35.1602 35.1665 35.1919C35.8788 35.2235 36.5729 35.4265 37.19 35.7835Z" fill="#FFC933"/>
<path d="M53.635 40.1926C53.6532 40.298 53.6502 40.406 53.626 40.5102C53.6018 40.6144 53.557 40.7127 53.4942 40.7993C53.3317 41.0376 52.3567 42.2076 49.1392 42.2293L48.7383 39.456C48.5382 38.0461 47.857 36.7487 46.81 35.7835C47.4271 35.4265 48.1212 35.2235 48.8335 35.1919C49.5457 35.1602 50.2551 35.3008 50.9015 35.6016C51.5478 35.9025 52.1121 36.3548 52.5465 36.9201C52.9809 37.4855 53.2725 38.1472 53.3967 38.8493L53.635 40.1926Z" fill="#FFC933"/>
<path d="M53.635 40.1926C53.6532 40.298 53.6502 40.406 53.626 40.5102C53.6018 40.6144 53.557 40.7127 53.4942 40.7993C53.3317 41.0376 52.3567 42.2076 49.1392 42.2293L48.7383 39.456C48.5382 38.0461 47.857 36.7487 46.81 35.7835C47.4271 35.4265 48.1212 35.2235 48.8335 35.1919C49.5457 35.1602 50.2551 35.3008 50.9015 35.6016C51.5478 35.9025 52.1121 36.3548 52.5465 36.9201C52.9809 37.4855 53.2725 38.1472 53.3967 38.8493L53.635 40.1926Z" fill="#FFC933"/>
<path d="M37.3742 33.4C37.1015 33.7867 36.7395 34.102 36.3189 34.3188C35.8983 34.5357 35.4316 34.6479 34.9584 34.6458C34.4863 34.6458 34.021 34.5337 33.6008 34.3186C33.1806 34.1034 32.8175 33.7916 32.5415 33.4086C32.2655 33.0257 32.0845 32.5826 32.0133 32.116C31.9421 31.6493 31.9828 31.1724 32.1321 30.7246C32.2813 30.2767 32.5349 29.8708 32.8718 29.5402C33.2088 29.2096 33.6195 28.9638 34.0701 28.823C34.5206 28.6823 34.9982 28.6506 35.4634 28.7306C35.9287 28.8107 36.3682 29.0001 36.7459 29.2833C36.6372 29.7081 36.5826 30.1449 36.5834 30.5833C36.5842 31.5769 36.8577 32.5512 37.3742 33.4Z" fill="#FFC933"/>
<path d="M52.0209 31.6667C52.0211 32.058 51.9443 32.4455 51.7947 32.8071C51.645 33.1687 51.4256 33.4972 51.1489 33.7739C50.8722 34.0506 50.5437 34.27 50.1821 34.4196C49.8205 34.5693 49.433 34.6461 49.0417 34.6458C48.5685 34.6479 48.1017 34.5357 47.6812 34.3189C47.2606 34.102 46.8986 33.7867 46.6259 33.4C47.1423 32.5512 47.4159 31.5769 47.4167 30.5833C47.4174 30.1449 47.3628 29.7081 47.2542 29.2833C47.6968 28.9514 48.2231 28.7492 48.7741 28.6995C49.3252 28.6499 49.8792 28.7546 50.374 29.002C50.8689 29.2494 51.285 29.6298 51.5759 30.1004C51.8668 30.5711 52.0209 31.1134 52.0209 31.6667Z" fill="#FFC933"/>
<path d="M42 34.6465C44.2437 34.6465 46.0625 32.8276 46.0625 30.584C46.0625 28.3403 44.2437 26.5215 42 26.5215C39.7563 26.5215 37.9375 28.3403 37.9375 30.584C37.9375 32.8276 39.7563 34.6465 42 34.6465Z" fill="#FFC933"/>
</g>
</g>
</g>
<defs>
<filter id="filter0_diii_163_3126" x="0" y="0" width="84" height="84" filterUnits="userSpaceOnUse" color-interpolation-filters="sRGB">
<feFlood flood-opacity="0" result="BackgroundImageFix"/>
<feColorMatrix in="SourceAlpha" type="matrix" values="0 0 0 0 0 0 0 0 0 0 0 0 0 0 0 0 0 0 127 0" result="hardAlpha"/>
<feMorphology radius="6" operator="erode" in="SourceAlpha" result="effect1_dropShadow_163_3126"/>
<feOffset dy="6"/>
<feGaussianBlur stdDeviation="8"/>
<feComposite in2="hardAlpha" operator="out"/>
<feColorMatrix type="matrix" values="0 0 0 0 1 0 0 0 0 0.788235 0 0 0 0 0.2 0 0 0 0.48 0"/>
<feBlend mode="normal" in2="BackgroundImageFix" result="effect1_dropShadow_163_3126"/>
<feBlend mode="normal" in="SourceGraphic" in2="effect1_dropShadow_163_3126" result="shape"/>
<feColorMatrix in="SourceAlpha" type="matrix" values="0 0 0 0 0 0 0 0 0 0 0 0 0 0 0 0 0 0 127 0" result="hardAlpha"/>
<feOffset/>
<feGaussianBlur stdDeviation="6"/>
<feComposite in2="hardAlpha" operator="arithmetic" k2="-1" k3="1"/>
<feColorMatrix type="matrix" values="0 0 0 0 1 0 0 0 0 0.788235 0 0 0 0 0.2 0 0 0 0.12 0"/>
<feBlend mode="normal" in2="shape" result="effect2_innerShadow_163_3126"/>
<feColorMatrix in="SourceAlpha" type="matrix" values="0 0 0 0 0 0 0 0 0 0 0 0 0 0 0 0 0 0 127 0" result="hardAlpha"/>
<feOffset/>
<feGaussianBlur stdDeviation="1.5"/>
<feComposite in2="hardAlpha" operator="arithmetic" k2="-1" k3="1"/>
<feColorMatrix type="matrix" values="0 0 0 0 1 0 0 0 0 0.788235 0 0 0 0 0.2 0 0 0 0.24 0"/>
<feBlend mode="normal" in2="effect2_innerShadow_163_3126" result="effect3_innerShadow_163_3126"/>
<feColorMatrix in="SourceAlpha" type="matrix" values="0 0 0 0 0 0 0 0 0 0 0 0 0 0 0 0 0 0 127 0" result="hardAlpha"/>
<feOffset/>
<feGaussianBlur stdDeviation="0.5"/>
<feComposite in2="hardAlpha" operator="arithmetic" k2="-1" k3="1"/>
<feColorMatrix type="matrix" values="0 0 0 0 1 0 0 0 0 0.788235 0 0 0 0 0.2 0 0 0 0.64 0"/>
<feBlend mode="normal" in2="effect3_innerShadow_163_3126" result="effect4_innerShadow_163_3126"/>
</filter>
<filter id="filter1_f_163_3126" x="8.66666" y="46.6667" width="66.6667" height="42.6667" filterUnits="userSpaceOnUse" color-interpolation-filters="sRGB">
<feFlood flood-opacity="0" result="BackgroundImageFix"/>
<feBlend mode="normal" in="SourceGraphic" in2="BackgroundImageFix" result="shape"/>
<feGaussianBlur stdDeviation="6.66667" result="effect1_foregroundBlur_163_3126"/>
</filter>
<filter id="filter2_f_163_3126" x="10" y="4" width="64" height="64" filterUnits="userSpaceOnUse" color-interpolation-filters="sRGB">
<feFlood flood-opacity="0" result="BackgroundImageFix"/>
<feBlend mode="normal" in="SourceGraphic" in2="BackgroundImageFix" result="shape"/>
<feGaussianBlur stdDeviation="10" result="effect1_foregroundBlur_163_3126"/>
</filter>
<clipPath id="clip0_163_3126">
<rect x="10" y="4" width="64" height="64" rx="16" fill="white"/>
</clipPath>
<clipPath id="clip1_163_3126">
<rect width="64" height="64" fill="white" transform="translate(10 4)"/>
</clipPath>
</defs>
</svg>
