<svg width="64" height="64" viewBox="0 0 64 64" fill="none" xmlns="http://www.w3.org/2000/svg">
<g clip-path="url(#clip0_478_899)">
<g clip-path="url(#clip1_478_899)">
<mask id="mask0_478_899" style="mask-type:luminance" maskUnits="userSpaceOnUse" x="0" y="0" width="64" height="64">
<path d="M64 0H0V64H64V0Z" fill="white"/>
</mask>
<g mask="url(#mask0_478_899)">
<path d="M64 0H0V64H64V0Z" fill="#FFC933" fill-opacity="0.04"/>
</g>
<path d="M37.6691 35.6053C37.489 34.3817 36.8763 33.2632 35.9421 32.4526C35.008 31.6421 33.8142 31.1932 32.5774 31.1875H31.4247C30.188 31.1932 28.9942 31.6421 28.06 32.4526C27.1259 33.2632 26.5132 34.3817 26.3331 35.6053L25.7806 39.4685C25.7629 39.5934 25.7746 39.7206 25.8146 39.8402C25.8547 39.9598 25.922 40.0684 26.0113 40.1575C26.228 40.3742 27.5572 41.4792 32.0022 41.4792C36.4471 41.4792 37.7731 40.3785 37.993 40.1575C38.0823 40.0684 38.1496 39.9598 38.1897 39.8402C38.2297 39.7206 38.2414 39.5934 38.2237 39.4685L37.6691 35.6053Z" fill="white"/>
<path d="M37.6691 35.6053C37.489 34.3817 36.8763 33.2632 35.9421 32.4526C35.008 31.6421 33.8142 31.1932 32.5774 31.1875H31.4247C30.188 31.1932 28.9942 31.6421 28.06 32.4526C27.1259 33.2632 26.5132 34.3817 26.3331 35.6053L25.7806 39.4685C25.7629 39.5934 25.7746 39.7206 25.8146 39.8402C25.8547 39.9598 25.922 40.0684 26.0113 40.1575C26.228 40.3742 27.5572 41.4792 32.0022 41.4792C36.4471 41.4792 37.7731 40.3785 37.993 40.1575C38.0823 40.0684 38.1496 39.9598 38.1897 39.8402C38.2297 39.7206 38.2414 39.5934 38.2237 39.4685L37.6691 35.6053Z" fill="url(#paint0_radial_478_899)"/>
<path d="M27.19 31.7833C26.143 32.7485 25.4618 34.046 25.2617 35.4558L24.8608 38.2292C21.6433 38.2075 20.6683 37.0375 20.5058 36.7992C20.443 36.7126 20.3982 36.6143 20.374 36.5101C20.3498 36.4059 20.3468 36.2979 20.365 36.1925L20.6033 34.8492C20.7275 34.1471 21.0191 33.4854 21.4535 32.92C21.8879 32.3547 22.4522 31.9024 23.0985 31.6015C23.7449 31.3007 24.4543 31.1601 25.1665 31.1918C25.8788 31.2234 26.5729 31.4263 27.19 31.7833Z" fill="white"/>
<path d="M27.19 31.7833C26.143 32.7485 25.4618 34.046 25.2617 35.4558L24.8608 38.2292C21.6433 38.2075 20.6683 37.0375 20.5058 36.7992C20.443 36.7126 20.3982 36.6143 20.374 36.5101C20.3498 36.4059 20.3468 36.2979 20.365 36.1925L20.6033 34.8492C20.7275 34.1471 21.0191 33.4854 21.4535 32.92C21.8879 32.3547 22.4522 31.9024 23.0985 31.6015C23.7449 31.3007 24.4543 31.1601 25.1665 31.1918C25.8788 31.2234 26.5729 31.4263 27.19 31.7833Z" fill="url(#paint1_radial_478_899)"/>
<path d="M43.6351 36.1925C43.6533 36.2979 43.6502 36.4059 43.6261 36.5101C43.6019 36.6143 43.557 36.7126 43.4942 36.7992C43.3317 37.0375 42.3567 38.2075 39.1392 38.2292L38.7384 35.4558C38.5383 34.046 37.8571 32.7485 36.8101 31.7833C37.4272 31.4263 38.1213 31.2234 38.8335 31.1918C39.5458 31.1601 40.2552 31.3007 40.9015 31.6015C41.5479 31.9024 42.1122 32.3547 42.5466 32.92C42.9809 33.4854 43.2726 34.1471 43.3967 34.8492L43.6351 36.1925Z" fill="white"/>
<path d="M43.6351 36.1925C43.6533 36.2979 43.6502 36.4059 43.6261 36.5101C43.6019 36.6143 43.557 36.7126 43.4942 36.7992C43.3317 37.0375 42.3567 38.2075 39.1392 38.2292L38.7384 35.4558C38.5383 34.046 37.8571 32.7485 36.8101 31.7833C37.4272 31.4263 38.1213 31.2234 38.8335 31.1918C39.5458 31.1601 40.2552 31.3007 40.9015 31.6015C41.5479 31.9024 42.1122 32.3547 42.5466 32.92C42.9809 33.4854 43.2726 34.1471 43.3967 34.8492L43.6351 36.1925Z" fill="url(#paint2_radial_478_899)"/>
<path d="M27.3741 29.4C27.1014 29.7867 26.7394 30.102 26.3188 30.3188C25.8982 30.5357 25.4315 30.6479 24.9583 30.6458C24.4862 30.6458 24.0209 30.5337 23.6007 30.3186C23.1805 30.1034 22.8175 29.7916 22.5415 29.4086C22.2655 29.0257 22.0844 28.5826 22.0132 28.116C21.942 27.6493 21.9827 27.1724 22.132 26.7246C22.2813 26.2767 22.5348 25.8708 22.8718 25.5402C23.2087 25.2096 23.6194 24.9638 24.07 24.823C24.5206 24.6823 24.9982 24.6506 25.4634 24.7306C25.9286 24.8107 26.3681 25.0001 26.7458 25.2833C26.6372 25.7081 26.5826 26.1449 26.5833 26.5833C26.5841 27.5769 26.8577 28.5512 27.3741 29.4Z" fill="white"/>
<path d="M27.3741 29.4C27.1014 29.7867 26.7394 30.102 26.3188 30.3188C25.8982 30.5357 25.4315 30.6479 24.9583 30.6458C24.4862 30.6458 24.0209 30.5337 23.6007 30.3186C23.1805 30.1034 22.8175 29.7916 22.5415 29.4086C22.2655 29.0257 22.0844 28.5826 22.0132 28.116C21.942 27.6493 21.9827 27.1724 22.132 26.7246C22.2813 26.2767 22.5348 25.8708 22.8718 25.5402C23.2087 25.2096 23.6194 24.9638 24.07 24.823C24.5206 24.6823 24.9982 24.6506 25.4634 24.7306C25.9286 24.8107 26.3681 25.0001 26.7458 25.2833C26.6372 25.7081 26.5826 26.1449 26.5833 26.5833C26.5841 27.5769 26.8577 28.5512 27.3741 29.4Z" fill="url(#paint3_radial_478_899)"/>
<path d="M42.0209 27.6667C42.0211 28.058 41.9443 28.4455 41.7947 28.8071C41.645 29.1687 41.4256 29.4972 41.1489 29.7739C40.8722 30.0506 40.5437 30.27 40.1821 30.4196C39.8205 30.5693 39.433 30.6461 39.0417 30.6458C38.5685 30.6479 38.1017 30.5357 37.6812 30.3189C37.2606 30.102 36.8986 29.7867 36.6259 29.4C37.1423 28.5512 37.4159 27.5769 37.4167 26.5833C37.4174 26.1449 37.3628 25.7081 37.2542 25.2833C37.6968 24.9514 38.2231 24.7492 38.7741 24.6995C39.3252 24.6499 39.8792 24.7546 40.374 25.002C40.8689 25.2494 41.285 25.6298 41.5759 26.1004C41.8668 26.5711 42.0209 27.1134 42.0209 27.6667Z" fill="white"/>
<path d="M42.0209 27.6667C42.0211 28.058 41.9443 28.4455 41.7947 28.8071C41.645 29.1687 41.4256 29.4972 41.1489 29.7739C40.8722 30.0506 40.5437 30.27 40.1821 30.4196C39.8205 30.5693 39.433 30.6461 39.0417 30.6458C38.5685 30.6479 38.1017 30.5357 37.6812 30.3189C37.2606 30.102 36.8986 29.7867 36.6259 29.4C37.1423 28.5512 37.4159 27.5769 37.4167 26.5833C37.4174 26.1449 37.3628 25.7081 37.2542 25.2833C37.6968 24.9514 38.2231 24.7492 38.7741 24.6995C39.3252 24.6499 39.8792 24.7546 40.374 25.002C40.8689 25.2494 41.285 25.6298 41.5759 26.1004C41.8668 26.5711 42.0209 27.1134 42.0209 27.6667Z" fill="url(#paint4_radial_478_899)"/>
<path d="M32 30.6458C34.2437 30.6458 36.0625 28.827 36.0625 26.5833C36.0625 24.3397 34.2437 22.5208 32 22.5208C29.7563 22.5208 27.9375 24.3397 27.9375 26.5833C27.9375 28.827 29.7563 30.6458 32 30.6458Z" fill="white"/>
<path d="M32 30.6458C34.2437 30.6458 36.0625 28.827 36.0625 26.5833C36.0625 24.3397 34.2437 22.5208 32 22.5208C29.7563 22.5208 27.9375 24.3397 27.9375 26.5833C27.9375 28.827 29.7563 30.6458 32 30.6458Z" fill="url(#paint5_radial_478_899)"/>
</g>
</g>
<rect x="0.5" y="0.5" width="63" height="63" rx="15.5" stroke="#292929"/>
<defs>
<radialGradient id="paint0_radial_478_899" cx="0" cy="0" r="1" gradientUnits="userSpaceOnUse" gradientTransform="translate(32.0021 46.2188) rotate(-90) scale(16.047 46.8372)">
<stop offset="0.0628645" stop-color="#2E2E2E" stop-opacity="0.5"/>
<stop offset="1" stop-color="#C8C8C8"/>
</radialGradient>
<radialGradient id="paint1_radial_478_899" cx="0" cy="0" r="1" gradientUnits="userSpaceOnUse" gradientTransform="translate(23.7716 41.4722) rotate(-90) scale(10.9797 25.701)">
<stop offset="0.0628645" stop-color="#2E2E2E" stop-opacity="0.5"/>
<stop offset="1" stop-color="#C8C8C8"/>
</radialGradient>
<radialGradient id="paint2_radial_478_899" cx="0" cy="0" r="1" gradientUnits="userSpaceOnUse" gradientTransform="translate(40.2284 41.4722) rotate(-90) scale(10.9797 25.701)">
<stop offset="0.0628645" stop-color="#2E2E2E" stop-opacity="0.5"/>
<stop offset="1" stop-color="#C8C8C8"/>
</radialGradient>
<radialGradient id="paint3_radial_478_899" cx="0" cy="0" r="1" gradientUnits="userSpaceOnUse" gradientTransform="translate(24.6766 33.3899) rotate(-90) scale(9.29039 20.2812)">
<stop offset="0.0628645" stop-color="#2E2E2E" stop-opacity="0.5"/>
<stop offset="1" stop-color="#C8C8C8"/>
</radialGradient>
<radialGradient id="paint4_radial_478_899" cx="0" cy="0" r="1" gradientUnits="userSpaceOnUse" gradientTransform="translate(39.3233 33.3899) rotate(-90) scale(9.29039 20.2812)">
<stop offset="0.0628645" stop-color="#2E2E2E" stop-opacity="0.5"/>
<stop offset="1" stop-color="#C8C8C8"/>
</radialGradient>
<radialGradient id="paint5_radial_478_899" cx="0" cy="0" r="1" gradientUnits="userSpaceOnUse" gradientTransform="translate(32 34.3877) rotate(-90) scale(12.6687 30.544)">
<stop offset="0.0628645" stop-color="#2E2E2E" stop-opacity="0.5"/>
<stop offset="1" stop-color="#C8C8C8"/>
</radialGradient>
<clipPath id="clip0_478_899">
<rect width="64" height="64" rx="16" fill="white"/>
</clipPath>
<clipPath id="clip1_478_899">
<rect width="64" height="64" fill="white"/>
</clipPath>
</defs>
</svg>
