<svg width="64" height="64" viewBox="0 0 64 64" fill="none" xmlns="http://www.w3.org/2000/svg">
<g clip-path="url(#clip0_478_825)">
<g clip-path="url(#clip1_478_825)">
<mask id="mask0_478_825" style="mask-type:luminance" maskUnits="userSpaceOnUse" x="0" y="0" width="64" height="64">
<path d="M64 0H0V64H64V0Z" fill="white"/>
</mask>
<g mask="url(#mask0_478_825)">
<path d="M64 0H0V64H64V0Z" fill="#FFC933" fill-opacity="0.04"/>
</g>
<path d="M42.7184 29.795L32.578 19.6531C31.9799 19.0565 31.0125 19.0636 30.4222 19.6523C29.8287 20.2474 29.8287 21.2137 30.4222 21.808L40.5641 31.9492C41.1583 32.5434 42.1242 32.5434 42.7184 31.9492C43.3142 31.3535 43.3142 30.3906 42.7184 29.795Z" fill="white"/>
<path d="M42.7184 29.795L32.578 19.6531C31.9799 19.0565 31.0125 19.0636 30.4222 19.6523C29.8287 20.2474 29.8287 21.2137 30.4222 21.808L40.5641 31.9492C41.1583 32.5434 42.1242 32.5434 42.7184 31.9492C43.3142 31.3535 43.3142 30.3906 42.7184 29.795Z" fill="url(#paint0_radial_478_825)"/>
<path d="M29.6699 23.21L29.5936 23.5926C29.056 26.2819 27.7494 28.8367 25.9821 30.9075L31.4994 36.4247C33.5698 34.6578 36.0895 33.3161 38.7789 32.7778L39.1622 32.7015L29.6699 23.21Z" fill="white"/>
<path d="M29.6699 23.21L29.5936 23.5926C29.056 26.2819 27.7494 28.8367 25.9821 30.9075L31.4994 36.4247C33.5698 34.6578 36.0895 33.3161 38.7789 32.7778L39.1622 32.7015L29.6699 23.21Z" fill="url(#paint1_radial_478_825)"/>
<path d="M24.9706 32.0502L21.1999 35.8201C20.309 36.7111 20.3053 38.1576 21.1999 39.0522L23.3542 41.2065C24.2451 42.0974 25.6916 42.1011 26.5863 41.2065L30.3566 37.4362L24.9706 32.0502ZM25.5092 37.9751C25.2117 38.2727 24.7296 38.2727 24.4321 37.9751C24.1345 37.6776 24.1345 37.1955 24.4321 36.898L25.5092 35.8209C25.8067 35.5234 26.2888 35.5234 26.5863 35.8209C26.8839 36.1184 26.8839 36.6005 26.5863 36.898L25.5092 37.9751Z" fill="white"/>
<path d="M24.9706 32.0502L21.1999 35.8201C20.309 36.7111 20.3053 38.1576 21.1999 39.0522L23.3542 41.2065C24.2451 42.0974 25.6916 42.1011 26.5863 41.2065L30.3566 37.4362L24.9706 32.0502ZM25.5092 37.9751C25.2117 38.2727 24.7296 38.2727 24.4321 37.9751C24.1345 37.6776 24.1345 37.1955 24.4321 36.898L25.5092 35.8209C25.8067 35.5234 26.2888 35.5234 26.5863 35.8209C26.8839 36.1184 26.8839 36.6005 26.5863 36.898L25.5092 37.9751Z" fill="url(#paint2_radial_478_825)"/>
<path d="M33.537 41.6118L34.5732 40.5756C35.4679 39.6811 35.465 38.2346 34.5732 37.3444L33.8036 36.5742C33.3782 36.8599 32.9719 37.1704 32.577 37.5017L33.4961 38.4222C33.7929 38.7175 33.795 39.1981 33.4961 39.4986L32.4428 40.5519L30.8949 39.0521L28.7405 41.2065L32.1966 44.5554C32.7863 45.1467 33.7547 45.15 34.3501 44.5546C34.9444 43.9603 34.9444 42.994 34.3501 42.3996L33.537 41.6118Z" fill="white"/>
<path d="M33.537 41.6118L34.5732 40.5756C35.4679 39.6811 35.465 38.2346 34.5732 37.3444L33.8036 36.5742C33.3782 36.8599 32.9719 37.1704 32.577 37.5017L33.4961 38.4222C33.7929 38.7175 33.795 39.1981 33.4961 39.4986L32.4428 40.5519L30.8949 39.0521L28.7405 41.2065L32.1966 44.5554C32.7863 45.1467 33.7547 45.15 34.3501 44.5546C34.9444 43.9603 34.9444 42.994 34.3501 42.3996L33.537 41.6118Z" fill="url(#paint3_radial_478_825)"/>
<path d="M36.6142 19C36.1932 19 35.8525 19.3407 35.8525 19.7617V21.2852C35.8525 21.7062 36.1932 22.0469 36.6142 22.0469C37.0352 22.0469 37.3759 21.7062 37.3759 21.2852V19.7617C37.3759 19.3407 37.0352 19 36.6142 19Z" fill="white"/>
<path d="M36.6142 19C36.1932 19 35.8525 19.3407 35.8525 19.7617V21.2852C35.8525 21.7062 36.1932 22.0469 36.6142 22.0469C37.0352 22.0469 37.3759 21.7062 37.3759 21.2852V19.7617C37.3759 19.3407 37.0352 19 36.6142 19Z" fill="url(#paint4_radial_478_825)"/>
<path d="M42.708 25.0938H41.1846C40.7635 25.0938 40.4229 25.4344 40.4229 25.8555C40.4229 26.2765 40.7635 26.6172 41.1846 26.6172H42.708C43.129 26.6172 43.4697 26.2765 43.4697 25.8555C43.4697 25.4344 43.129 25.0938 42.708 25.0938Z" fill="white"/>
<path d="M42.708 25.0938H41.1846C40.7635 25.0938 40.4229 25.4344 40.4229 25.8555C40.4229 26.2765 40.7635 26.6172 41.1846 26.6172H42.708C43.129 26.6172 43.4697 26.2765 43.4697 25.8555C43.4697 25.4344 43.129 25.0938 42.708 25.0938Z" fill="url(#paint5_radial_478_825)"/>
<path d="M41.7231 20.7466C41.4255 20.4491 40.9435 20.4491 40.6459 20.7466L39.1225 22.27C38.825 22.5676 38.825 23.0496 39.1225 23.3471C39.42 23.6447 39.9021 23.6447 40.1996 23.3471L41.7231 21.8237C42.0206 21.5262 42.0206 21.0441 41.7231 20.7466Z" fill="white"/>
<path d="M41.7231 20.7466C41.4255 20.4491 40.9435 20.4491 40.6459 20.7466L39.1225 22.27C38.825 22.5676 38.825 23.0496 39.1225 23.3471C39.42 23.6447 39.9021 23.6447 40.1996 23.3471L41.7231 21.8237C42.0206 21.5262 42.0206 21.0441 41.7231 20.7466Z" fill="url(#paint6_radial_478_825)"/>
</g>
</g>
<rect x="0.5" y="0.5" width="63" height="63" rx="15.5" stroke="#292929"/>
<defs>
<radialGradient id="paint0_radial_478_825" cx="0" cy="0" r="1" gradientUnits="userSpaceOnUse" gradientTransform="translate(36.5711 38.4677) rotate(-90) scale(20.5609 49.5777)">
<stop offset="0.0628645" stop-color="#2E2E2E" stop-opacity="0.5"/>
<stop offset="1" stop-color="#C8C8C8"/>
</radialGradient>
<radialGradient id="paint1_radial_478_825" cx="0" cy="0" r="1" gradientUnits="userSpaceOnUse" gradientTransform="translate(32.5721 42.5105) rotate(-90) scale(20.6046 49.5472)">
<stop offset="0.0628645" stop-color="#2E2E2E" stop-opacity="0.5"/>
<stop offset="1" stop-color="#C8C8C8"/>
</radialGradient>
<radialGradient id="paint2_radial_478_825" cx="0" cy="0" r="1" gradientUnits="userSpaceOnUse" gradientTransform="translate(25.4434 46.4012) rotate(-90) scale(15.3206 36.9394)">
<stop offset="0.0628645" stop-color="#2E2E2E" stop-opacity="0.5"/>
<stop offset="1" stop-color="#C8C8C8"/>
</radialGradient>
<radialGradient id="paint3_radial_478_825" cx="0" cy="0" r="1" gradientUnits="userSpaceOnUse" gradientTransform="translate(31.9918 48.8804) rotate(-90) scale(13.1377 24.4449)">
<stop offset="0.0628645" stop-color="#2E2E2E" stop-opacity="0.5"/>
<stop offset="1" stop-color="#C8C8C8"/>
</radialGradient>
<radialGradient id="paint4_radial_478_825" cx="0" cy="0" r="1" gradientUnits="userSpaceOnUse" gradientTransform="translate(36.6142 23.4501) rotate(-90) scale(4.75075 5.727)">
<stop offset="0.0628645" stop-color="#2E2E2E" stop-opacity="0.5"/>
<stop offset="1" stop-color="#C8C8C8"/>
</radialGradient>
<radialGradient id="paint5_radial_478_825" cx="0" cy="0" r="1" gradientUnits="userSpaceOnUse" gradientTransform="translate(41.9463 27.3188) rotate(-90) scale(2.37538 11.454)">
<stop offset="0.0628645" stop-color="#2E2E2E" stop-opacity="0.5"/>
<stop offset="1" stop-color="#C8C8C8"/>
</radialGradient>
<radialGradient id="paint6_radial_478_825" cx="0" cy="0" r="1" gradientUnits="userSpaceOnUse" gradientTransform="translate(40.4228 24.9735) rotate(-90) scale(4.75074 11.4539)">
<stop offset="0.0628645" stop-color="#2E2E2E" stop-opacity="0.5"/>
<stop offset="1" stop-color="#C8C8C8"/>
</radialGradient>
<clipPath id="clip0_478_825">
<rect width="64" height="64" rx="16" fill="white"/>
</clipPath>
<clipPath id="clip1_478_825">
<rect width="64" height="64" fill="white"/>
</clipPath>
</defs>
</svg>
