<svg width="60" height="60" viewBox="0 0 60 60" fill="none" xmlns="http://www.w3.org/2000/svg">
<rect width="60" height="60" rx="8" fill="url(#paint0_linear_104_1030)"/>
<path fill-rule="evenodd" clip-rule="evenodd" d="M39.6974 33.8339C39.6974 35.8606 38.0488 37.5066 36.0247 37.5066H23.9751C21.951 37.5066 20.3024 35.8606 20.3024 33.8339V26.167C20.3024 25.4906 20.4876 24.8553 20.8091 24.31L26.6885 30.1895C27.5681 31.0716 28.746 31.5577 30.0011 31.5577C31.2537 31.5577 32.4316 31.0716 33.3112 30.1895L39.1907 24.31C39.5122 24.8553 39.6973 25.4905 39.6973 26.167V33.8339H39.6974ZM36.0246 22.4943H23.9751C23.1393 22.4943 22.3676 22.7772 21.7504 23.2478L27.689 29.189C28.3037 29.8011 29.1241 30.1406 30.0011 30.1406C30.8756 30.1406 31.6961 29.8011 32.3107 29.189L38.2493 23.2478C37.6321 22.7772 36.8606 22.4943 36.0246 22.4943ZM36.0246 21.0771H23.9751C21.1691 21.0771 18.8853 23.361 18.8853 26.167V33.834C18.8853 36.6426 21.1691 38.9239 23.9751 38.9239H36.0246C38.8306 38.9239 41.1145 36.6426 41.1145 33.834V26.167C41.1145 23.361 38.8306 21.0771 36.0246 21.0771Z" fill="white"/>
<defs>
<linearGradient id="paint0_linear_104_1030" x1="8.5" y1="6" x2="50.5" y2="65.5" gradientUnits="userSpaceOnUse">
<stop stop-color="#242323"/>
<stop offset="1" stop-color="#0E0E0E"/>
</linearGradient>
</defs>
</svg>
