<svg width="84" height="84" viewBox="0 0 84 84" fill="none" xmlns="http://www.w3.org/2000/svg">
<g filter="url(#filter0_diii_163_3090)">
<g clip-path="url(#clip0_163_3090)">
<g clip-path="url(#clip1_163_3090)">
<mask id="mask0_163_3090" style="mask-type:luminance" maskUnits="userSpaceOnUse" x="10" y="4" width="64" height="64">
<path d="M74 4H10V68H74V4Z" fill="white"/>
</mask>
<g mask="url(#mask0_163_3090)">
<path d="M74 4H10V68H74V4Z" fill="#FFC933" fill-opacity="0.04"/>
<g opacity="0.48" filter="url(#filter1_f_163_3090)">
<path d="M42 76C53.0457 76 62 72.4183 62 68C62 63.5817 53.0457 60 42 60C30.9543 60 22 63.5817 22 68C22 72.4183 30.9543 76 42 76Z" fill="#FFC933"/>
</g>
<g opacity="0.64" filter="url(#filter2_f_163_3090)">
<path d="M42 48C48.6274 48 54 42.6274 54 36C54 29.3726 48.6274 24 42 24C35.3726 24 30 29.3726 30 36C30 42.6274 35.3726 48 42 48Z" fill="#FFC933"/>
</g>
</g>
<path d="M47.9584 31.1244C47.9584 29.9459 47.6089 28.7939 46.9542 27.8141C46.2995 26.8342 45.3689 26.0705 44.2802 25.6196C43.1914 25.1686 41.9934 25.0506 40.8376 25.2805C39.6818 25.5104 38.6201 26.0779 37.7868 26.9112C36.9536 27.7445 36.3861 28.8061 36.1562 29.9619C35.9263 31.1177 36.0443 32.3158 36.4952 33.4045C36.9462 34.4933 37.7099 35.4238 38.6898 36.0785C39.6696 36.7332 40.8216 37.0827 42 37.0827C43.5797 37.0809 45.0942 36.4526 46.2112 35.3356C47.3283 34.2185 47.9566 32.7041 47.9584 31.1244ZM41.4584 30.5827H42.5417C42.9727 30.5827 43.386 30.7539 43.6907 31.0586C43.9955 31.3634 44.1667 31.7767 44.1667 32.2077C44.1667 32.6387 43.9955 33.052 43.6907 33.3567C43.386 33.6615 42.9727 33.8327 42.5417 33.8327V34.3744C42.5417 34.518 42.4846 34.6558 42.383 34.7574C42.2815 34.859 42.1437 34.916 42 34.916C41.8564 34.916 41.7186 34.859 41.617 34.7574C41.5154 34.6558 41.4584 34.518 41.4584 34.3744V33.8327H40.375C40.2314 33.8327 40.0936 33.7756 39.992 33.674C39.8904 33.5725 39.8334 33.4347 39.8334 33.291C39.8334 33.1474 39.8904 33.0096 39.992 32.908C40.0936 32.8064 40.2314 32.7494 40.375 32.7494H42.5417C42.6853 32.7494 42.8231 32.6923 42.9247 32.5907C43.0263 32.4891 43.0834 32.3513 43.0834 32.2077C43.0834 32.064 43.0263 31.9263 42.9247 31.8247C42.8231 31.7231 42.6853 31.666 42.5417 31.666H41.4584C41.0274 31.666 40.6141 31.4948 40.3093 31.1901C40.0046 30.8853 39.8334 30.472 39.8334 30.041C39.8334 29.61 40.0046 29.1967 40.3093 28.892C40.6141 28.5872 41.0274 28.416 41.4584 28.416V27.8744C41.4584 27.7307 41.5154 27.5929 41.617 27.4913C41.7186 27.3898 41.8564 27.3327 42 27.3327C42.1437 27.3327 42.2815 27.3898 42.383 27.4913C42.4846 27.5929 42.5417 27.7307 42.5417 27.8744V28.416H43.625C43.7687 28.416 43.9065 28.4731 44.008 28.5747C44.1096 28.6763 44.1667 28.814 44.1667 28.9577C44.1667 29.1013 44.1096 29.2391 44.008 29.3407C43.9065 29.4423 43.7687 29.4994 43.625 29.4994H41.4584C41.3147 29.4994 41.1769 29.5564 41.0753 29.658C40.9738 29.7596 40.9167 29.8974 40.9167 30.041C40.9167 30.1847 40.9738 30.3225 41.0753 30.424C41.1769 30.5256 41.3147 30.5827 41.4584 30.5827Z" fill="white"/>
<path d="M47.9584 31.1244C47.9584 29.9459 47.6089 28.7939 46.9542 27.8141C46.2995 26.8342 45.3689 26.0705 44.2802 25.6196C43.1914 25.1686 41.9934 25.0506 40.8376 25.2805C39.6818 25.5104 38.6201 26.0779 37.7868 26.9112C36.9536 27.7445 36.3861 28.8061 36.1562 29.9619C35.9263 31.1177 36.0443 32.3158 36.4952 33.4045C36.9462 34.4933 37.7099 35.4238 38.6898 36.0785C39.6696 36.7332 40.8216 37.0827 42 37.0827C43.5797 37.0809 45.0942 36.4526 46.2112 35.3356C47.3283 34.2185 47.9566 32.7041 47.9584 31.1244ZM41.4584 30.5827H42.5417C42.9727 30.5827 43.386 30.7539 43.6907 31.0586C43.9955 31.3634 44.1667 31.7767 44.1667 32.2077C44.1667 32.6387 43.9955 33.052 43.6907 33.3567C43.386 33.6615 42.9727 33.8327 42.5417 33.8327V34.3744C42.5417 34.518 42.4846 34.6558 42.383 34.7574C42.2815 34.859 42.1437 34.916 42 34.916C41.8564 34.916 41.7186 34.859 41.617 34.7574C41.5154 34.6558 41.4584 34.518 41.4584 34.3744V33.8327H40.375C40.2314 33.8327 40.0936 33.7756 39.992 33.674C39.8904 33.5725 39.8334 33.4347 39.8334 33.291C39.8334 33.1474 39.8904 33.0096 39.992 32.908C40.0936 32.8064 40.2314 32.7494 40.375 32.7494H42.5417C42.6853 32.7494 42.8231 32.6923 42.9247 32.5907C43.0263 32.4891 43.0834 32.3513 43.0834 32.2077C43.0834 32.064 43.0263 31.9263 42.9247 31.8247C42.8231 31.7231 42.6853 31.666 42.5417 31.666H41.4584C41.0274 31.666 40.6141 31.4948 40.3093 31.1901C40.0046 30.8853 39.8334 30.472 39.8334 30.041C39.8334 29.61 40.0046 29.1967 40.3093 28.892C40.6141 28.5872 41.0274 28.416 41.4584 28.416V27.8744C41.4584 27.7307 41.5154 27.5929 41.617 27.4913C41.7186 27.3898 41.8564 27.3327 42 27.3327C42.1437 27.3327 42.2815 27.3898 42.383 27.4913C42.4846 27.5929 42.5417 27.7307 42.5417 27.8744V28.416H43.625C43.7687 28.416 43.9065 28.4731 44.008 28.5747C44.1096 28.6763 44.1667 28.814 44.1667 28.9577C44.1667 29.1013 44.1096 29.2391 44.008 29.3407C43.9065 29.4423 43.7687 29.4994 43.625 29.4994H41.4584C41.3147 29.4994 41.1769 29.5564 41.0753 29.658C40.9738 29.7596 40.9167 29.8974 40.9167 30.041C40.9167 30.1847 40.9738 30.3225 41.0753 30.424C41.1769 30.5256 41.3147 30.5827 41.4584 30.5827Z" fill="#FFC933"/>
<path d="M39.8418 40.627C39.8401 40.6253 39.8377 40.6247 39.8361 40.623C39.8344 40.6213 39.8336 40.6184 39.8317 40.6165L37.1509 37.9346C36.9471 37.734 36.6723 37.6221 36.3863 37.6233C36.1004 37.6245 35.8265 37.7387 35.6244 37.941C35.4223 38.1432 35.3083 38.4172 35.3073 38.7031C35.3063 38.9891 35.4183 39.2638 35.619 39.4675L35.6125 39.4646L37.1758 41.0279C37.2273 41.078 37.2684 41.1377 37.2966 41.2038C37.3249 41.2698 37.3397 41.3408 37.3403 41.4126C37.3408 41.4844 37.3271 41.5557 37.2998 41.6221C37.2726 41.6886 37.2324 41.749 37.1816 41.7998C37.1308 41.8505 37.0705 41.8907 37.004 41.918C36.9375 41.9452 36.8663 41.9589 36.7945 41.9584C36.7227 41.9578 36.6517 41.943 36.5856 41.9148C36.5196 41.8865 36.4598 41.8454 36.4098 41.7939L33.3333 38.709V34.9173C33.3333 34.63 33.2192 34.3544 33.016 34.1513C32.8128 33.9481 32.5373 33.834 32.25 33.834C31.9627 33.834 31.6871 33.9481 31.4839 34.1513C31.2808 34.3544 31.1666 34.63 31.1666 34.9173V39.9728C31.1656 40.208 31.2161 40.4405 31.3144 40.6542C31.4127 40.8678 31.5565 41.0574 31.7358 41.2096L36.5833 45.9908V46.2923C36.5833 46.3635 36.5972 46.4339 36.6245 46.4997C36.6517 46.5654 36.6916 46.6251 36.7419 46.6754C36.7922 46.7257 36.8519 46.7656 36.9176 46.7928C36.9834 46.82 37.0538 46.834 37.125 46.834H40.375C40.4461 46.834 40.5166 46.82 40.5823 46.7928C40.648 46.7656 40.7078 46.7257 40.7581 46.6754C40.8084 46.6251 40.8483 46.5654 40.8755 46.4997C40.9027 46.4339 40.9167 46.3635 40.9166 46.2923V42.4065C40.9166 41.9814 40.7496 41.5734 40.4517 41.2703L39.8418 40.627Z" fill="white"/>
<path d="M39.8418 40.627C39.8401 40.6253 39.8377 40.6247 39.8361 40.623C39.8344 40.6213 39.8336 40.6184 39.8317 40.6165L37.1509 37.9346C36.9471 37.734 36.6723 37.6221 36.3863 37.6233C36.1004 37.6245 35.8265 37.7387 35.6244 37.941C35.4223 38.1432 35.3083 38.4172 35.3073 38.7031C35.3063 38.9891 35.4183 39.2638 35.619 39.4675L35.6125 39.4646L37.1758 41.0279C37.2273 41.078 37.2684 41.1377 37.2966 41.2038C37.3249 41.2698 37.3397 41.3408 37.3403 41.4126C37.3408 41.4844 37.3271 41.5557 37.2998 41.6221C37.2726 41.6886 37.2324 41.749 37.1816 41.7998C37.1308 41.8505 37.0705 41.8907 37.004 41.918C36.9375 41.9452 36.8663 41.9589 36.7945 41.9584C36.7227 41.9578 36.6517 41.943 36.5856 41.9148C36.5196 41.8865 36.4598 41.8454 36.4098 41.7939L33.3333 38.709V34.9173C33.3333 34.63 33.2192 34.3544 33.016 34.1513C32.8128 33.9481 32.5373 33.834 32.25 33.834C31.9627 33.834 31.6871 33.9481 31.4839 34.1513C31.2808 34.3544 31.1666 34.63 31.1666 34.9173V39.9728C31.1656 40.208 31.2161 40.4405 31.3144 40.6542C31.4127 40.8678 31.5565 41.0574 31.7358 41.2096L36.5833 45.9908V46.2923C36.5833 46.3635 36.5972 46.4339 36.6245 46.4997C36.6517 46.5654 36.6916 46.6251 36.7419 46.6754C36.7922 46.7257 36.8519 46.7656 36.9176 46.7928C36.9834 46.82 37.0538 46.834 37.125 46.834H40.375C40.4461 46.834 40.5166 46.82 40.5823 46.7928C40.648 46.7656 40.7078 46.7257 40.7581 46.6754C40.8084 46.6251 40.8483 46.5654 40.8755 46.4997C40.9027 46.4339 40.9167 46.3635 40.9166 46.2923V42.4065C40.9166 41.9814 40.7496 41.5734 40.4517 41.2703L39.8418 40.627Z" fill="#FFC933"/>
<path d="M51.75 33.834C51.4628 33.8343 51.1874 33.9485 50.9843 34.1516C50.7812 34.3547 50.6669 34.6301 50.6666 34.9173V38.709L47.5901 41.7939C47.4881 41.893 47.3511 41.9479 47.2089 41.9468C47.0666 41.9457 46.9306 41.8887 46.83 41.7882C46.7294 41.6876 46.6724 41.5515 46.6713 41.4093C46.6703 41.267 46.7252 41.1301 46.8242 41.028L48.3875 39.4646L48.3809 39.4675C48.4829 39.3672 48.5639 39.2477 48.6195 39.1159C48.675 38.9841 48.7039 38.8426 48.7045 38.6996C48.7051 38.5566 48.6774 38.4149 48.623 38.2827C48.5685 38.1504 48.4885 38.0303 48.3874 37.9291C48.2863 37.828 48.1662 37.7478 48.034 37.6933C47.9018 37.6388 47.7601 37.611 47.6171 37.6115C47.4741 37.612 47.3326 37.6408 47.2008 37.6962C47.069 37.7517 46.9494 37.8327 46.8491 37.9345L44.1682 40.6165C44.1663 40.6184 44.1658 40.621 44.1639 40.623C44.1619 40.625 44.1598 40.6253 44.1582 40.627L43.5483 41.2703C43.2503 41.5734 43.0834 41.9814 43.0833 42.4065V46.2923C43.0833 46.3635 43.0973 46.4339 43.1245 46.4997C43.1517 46.5654 43.1916 46.6251 43.2419 46.6754C43.2922 46.7257 43.3519 46.7656 43.4176 46.7928C43.4834 46.82 43.5538 46.834 43.625 46.834H46.875C46.9461 46.834 47.0166 46.82 47.0823 46.7928C47.1481 46.7656 47.2078 46.7257 47.2581 46.6754C47.3084 46.6251 47.3483 46.5654 47.3755 46.4997C47.4027 46.4339 47.4167 46.3635 47.4166 46.2923V45.9908L52.2641 41.2096C52.4434 41.0574 52.5872 40.8678 52.6856 40.6542C52.7839 40.4405 52.8343 40.208 52.8333 39.9728V34.9173C52.833 34.6301 52.7188 34.3547 52.5157 34.1516C52.3126 33.9485 52.0372 33.8343 51.75 33.834Z" fill="white"/>
<path d="M51.75 33.834C51.4628 33.8343 51.1874 33.9485 50.9843 34.1516C50.7812 34.3547 50.6669 34.6301 50.6666 34.9173V38.709L47.5901 41.7939C47.4881 41.893 47.3511 41.9479 47.2089 41.9468C47.0666 41.9457 46.9306 41.8887 46.83 41.7882C46.7294 41.6876 46.6724 41.5515 46.6713 41.4093C46.6703 41.267 46.7252 41.1301 46.8242 41.028L48.3875 39.4646L48.3809 39.4675C48.4829 39.3672 48.5639 39.2477 48.6195 39.1159C48.675 38.9841 48.7039 38.8426 48.7045 38.6996C48.7051 38.5566 48.6774 38.4149 48.623 38.2827C48.5685 38.1504 48.4885 38.0303 48.3874 37.9291C48.2863 37.828 48.1662 37.7478 48.034 37.6933C47.9018 37.6388 47.7601 37.611 47.6171 37.6115C47.4741 37.612 47.3326 37.6408 47.2008 37.6962C47.069 37.7517 46.9494 37.8327 46.8491 37.9345L44.1682 40.6165C44.1663 40.6184 44.1658 40.621 44.1639 40.623C44.1619 40.625 44.1598 40.6253 44.1582 40.627L43.5483 41.2703C43.2503 41.5734 43.0834 41.9814 43.0833 42.4065V46.2923C43.0833 46.3635 43.0973 46.4339 43.1245 46.4997C43.1517 46.5654 43.1916 46.6251 43.2419 46.6754C43.2922 46.7257 43.3519 46.7656 43.4176 46.7928C43.4834 46.82 43.5538 46.834 43.625 46.834H46.875C46.9461 46.834 47.0166 46.82 47.0823 46.7928C47.1481 46.7656 47.2078 46.7257 47.2581 46.6754C47.3084 46.6251 47.3483 46.5654 47.3755 46.4997C47.4027 46.4339 47.4167 46.3635 47.4166 46.2923V45.9908L52.2641 41.2096C52.4434 41.0574 52.5872 40.8678 52.6856 40.6542C52.7839 40.4405 52.8343 40.208 52.8333 39.9728V34.9173C52.833 34.6301 52.7188 34.3547 52.5157 34.1516C52.3126 33.9485 52.0372 33.8343 51.75 33.834Z" fill="#FFC933"/>
</g>
</g>
</g>
<defs>
<filter id="filter0_diii_163_3090" x="0" y="0" width="84" height="84" filterUnits="userSpaceOnUse" color-interpolation-filters="sRGB">
<feFlood flood-opacity="0" result="BackgroundImageFix"/>
<feColorMatrix in="SourceAlpha" type="matrix" values="0 0 0 0 0 0 0 0 0 0 0 0 0 0 0 0 0 0 127 0" result="hardAlpha"/>
<feMorphology radius="6" operator="erode" in="SourceAlpha" result="effect1_dropShadow_163_3090"/>
<feOffset dy="6"/>
<feGaussianBlur stdDeviation="8"/>
<feComposite in2="hardAlpha" operator="out"/>
<feColorMatrix type="matrix" values="0 0 0 0 1 0 0 0 0 0.788235 0 0 0 0 0.2 0 0 0 0.48 0"/>
<feBlend mode="normal" in2="BackgroundImageFix" result="effect1_dropShadow_163_3090"/>
<feBlend mode="normal" in="SourceGraphic" in2="effect1_dropShadow_163_3090" result="shape"/>
<feColorMatrix in="SourceAlpha" type="matrix" values="0 0 0 0 0 0 0 0 0 0 0 0 0 0 0 0 0 0 127 0" result="hardAlpha"/>
<feOffset/>
<feGaussianBlur stdDeviation="6"/>
<feComposite in2="hardAlpha" operator="arithmetic" k2="-1" k3="1"/>
<feColorMatrix type="matrix" values="0 0 0 0 1 0 0 0 0 0.788235 0 0 0 0 0.2 0 0 0 0.12 0"/>
<feBlend mode="normal" in2="shape" result="effect2_innerShadow_163_3090"/>
<feColorMatrix in="SourceAlpha" type="matrix" values="0 0 0 0 0 0 0 0 0 0 0 0 0 0 0 0 0 0 127 0" result="hardAlpha"/>
<feOffset/>
<feGaussianBlur stdDeviation="1.5"/>
<feComposite in2="hardAlpha" operator="arithmetic" k2="-1" k3="1"/>
<feColorMatrix type="matrix" values="0 0 0 0 1 0 0 0 0 0.788235 0 0 0 0 0.2 0 0 0 0.24 0"/>
<feBlend mode="normal" in2="effect2_innerShadow_163_3090" result="effect3_innerShadow_163_3090"/>
<feColorMatrix in="SourceAlpha" type="matrix" values="0 0 0 0 0 0 0 0 0 0 0 0 0 0 0 0 0 0 127 0" result="hardAlpha"/>
<feOffset/>
<feGaussianBlur stdDeviation="0.5"/>
<feComposite in2="hardAlpha" operator="arithmetic" k2="-1" k3="1"/>
<feColorMatrix type="matrix" values="0 0 0 0 1 0 0 0 0 0.788235 0 0 0 0 0.2 0 0 0 0.64 0"/>
<feBlend mode="normal" in2="effect3_innerShadow_163_3090" result="effect4_innerShadow_163_3090"/>
</filter>
<filter id="filter1_f_163_3090" x="8.66666" y="46.6667" width="66.6667" height="42.6667" filterUnits="userSpaceOnUse" color-interpolation-filters="sRGB">
<feFlood flood-opacity="0" result="BackgroundImageFix"/>
<feBlend mode="normal" in="SourceGraphic" in2="BackgroundImageFix" result="shape"/>
<feGaussianBlur stdDeviation="6.66667" result="effect1_foregroundBlur_163_3090"/>
</filter>
<filter id="filter2_f_163_3090" x="10" y="4" width="64" height="64" filterUnits="userSpaceOnUse" color-interpolation-filters="sRGB">
<feFlood flood-opacity="0" result="BackgroundImageFix"/>
<feBlend mode="normal" in="SourceGraphic" in2="BackgroundImageFix" result="shape"/>
<feGaussianBlur stdDeviation="10" result="effect1_foregroundBlur_163_3090"/>
</filter>
<clipPath id="clip0_163_3090">
<rect x="10" y="4" width="64" height="64" rx="16" fill="white"/>
</clipPath>
<clipPath id="clip1_163_3090">
<rect width="64" height="64" fill="white" transform="translate(10 4)"/>
</clipPath>
</defs>
</svg>
