<svg width="64" height="64" viewBox="0 0 64 64" fill="none" xmlns="http://www.w3.org/2000/svg">
<g clip-path="url(#clip0_478_770)">
<g clip-path="url(#clip1_478_770)">
<mask id="mask0_478_770" style="mask-type:luminance" maskUnits="userSpaceOnUse" x="0" y="0" width="64" height="64">
<path d="M64 0H0V64H64V0Z" fill="white"/>
</mask>
<g mask="url(#mask0_478_770)">
<path d="M64 0H0V64H64V0Z" fill="#FFC933" fill-opacity="0.04"/>
</g>
<path d="M37.9584 27.125C37.9584 25.9466 37.6089 24.7946 36.9542 23.8148C36.2995 22.8349 35.3689 22.0712 34.2802 21.6202C33.1914 21.1693 31.9934 21.0513 30.8376 21.2812C29.6818 21.5111 28.6201 22.0786 27.7868 22.9118C26.9536 23.7451 26.3861 24.8068 26.1562 25.9626C25.9263 27.1184 26.0443 28.3164 26.4952 29.4052C26.9462 30.4939 27.7099 31.4245 28.6898 32.0792C29.6696 32.7339 30.8216 33.0834 32 33.0834C33.5797 33.0816 35.0942 32.4533 36.2112 31.3362C37.3283 30.2192 37.9566 28.7047 37.9584 27.125ZM31.4584 26.5834H32.5417C32.9727 26.5834 33.386 26.7546 33.6907 27.0593C33.9955 27.3641 34.1667 27.7774 34.1667 28.2084C34.1667 28.6393 33.9955 29.0527 33.6907 29.3574C33.386 29.6622 32.9727 29.8334 32.5417 29.8334V30.375C32.5417 30.5187 32.4846 30.6565 32.383 30.758C32.2815 30.8596 32.1437 30.9167 32 30.9167C31.8564 30.9167 31.7186 30.8596 31.617 30.758C31.5154 30.6565 31.4584 30.5187 31.4584 30.375V29.8334H30.375C30.2314 29.8334 30.0936 29.7763 29.992 29.6747C29.8904 29.5731 29.8334 29.4353 29.8334 29.2917C29.8334 29.148 29.8904 29.0103 29.992 28.9087C30.0936 28.8071 30.2314 28.75 30.375 28.75H32.5417C32.6853 28.75 32.8231 28.693 32.9247 28.5914C33.0263 28.4898 33.0834 28.352 33.0834 28.2084C33.0834 28.0647 33.0263 27.9269 32.9247 27.8253C32.8231 27.7238 32.6853 27.6667 32.5417 27.6667H31.4584C31.0274 27.6667 30.6141 27.4955 30.3093 27.1907C30.0046 26.886 29.8334 26.4727 29.8334 26.0417C29.8334 25.6107 30.0046 25.1974 30.3093 24.8926C30.6141 24.5879 31.0274 24.4167 31.4584 24.4167V23.875C31.4584 23.7314 31.5154 23.5936 31.617 23.492C31.7186 23.3904 31.8564 23.3334 32 23.3334C32.1437 23.3334 32.2815 23.3904 32.383 23.492C32.4846 23.5936 32.5417 23.7314 32.5417 23.875V24.4167H33.625C33.7687 24.4167 33.9065 24.4738 34.008 24.5753C34.1096 24.6769 34.1667 24.8147 34.1667 24.9584C34.1667 25.102 34.1096 25.2398 34.008 25.3414C33.9065 25.443 33.7687 25.5 33.625 25.5H31.4584C31.3147 25.5 31.1769 25.5571 31.0753 25.6587C30.9738 25.7603 30.9167 25.898 30.9167 26.0417C30.9167 26.1853 30.9738 26.3231 31.0753 26.4247C31.1769 26.5263 31.3147 26.5834 31.4584 26.5834Z" fill="white"/>
<path d="M37.9584 27.125C37.9584 25.9466 37.6089 24.7946 36.9542 23.8148C36.2995 22.8349 35.3689 22.0712 34.2802 21.6202C33.1914 21.1693 31.9934 21.0513 30.8376 21.2812C29.6818 21.5111 28.6201 22.0786 27.7868 22.9118C26.9536 23.7451 26.3861 24.8068 26.1562 25.9626C25.9263 27.1184 26.0443 28.3164 26.4952 29.4052C26.9462 30.4939 27.7099 31.4245 28.6898 32.0792C29.6696 32.7339 30.8216 33.0834 32 33.0834C33.5797 33.0816 35.0942 32.4533 36.2112 31.3362C37.3283 30.2192 37.9566 28.7047 37.9584 27.125ZM31.4584 26.5834H32.5417C32.9727 26.5834 33.386 26.7546 33.6907 27.0593C33.9955 27.3641 34.1667 27.7774 34.1667 28.2084C34.1667 28.6393 33.9955 29.0527 33.6907 29.3574C33.386 29.6622 32.9727 29.8334 32.5417 29.8334V30.375C32.5417 30.5187 32.4846 30.6565 32.383 30.758C32.2815 30.8596 32.1437 30.9167 32 30.9167C31.8564 30.9167 31.7186 30.8596 31.617 30.758C31.5154 30.6565 31.4584 30.5187 31.4584 30.375V29.8334H30.375C30.2314 29.8334 30.0936 29.7763 29.992 29.6747C29.8904 29.5731 29.8334 29.4353 29.8334 29.2917C29.8334 29.148 29.8904 29.0103 29.992 28.9087C30.0936 28.8071 30.2314 28.75 30.375 28.75H32.5417C32.6853 28.75 32.8231 28.693 32.9247 28.5914C33.0263 28.4898 33.0834 28.352 33.0834 28.2084C33.0834 28.0647 33.0263 27.9269 32.9247 27.8253C32.8231 27.7238 32.6853 27.6667 32.5417 27.6667H31.4584C31.0274 27.6667 30.6141 27.4955 30.3093 27.1907C30.0046 26.886 29.8334 26.4727 29.8334 26.0417C29.8334 25.6107 30.0046 25.1974 30.3093 24.8926C30.6141 24.5879 31.0274 24.4167 31.4584 24.4167V23.875C31.4584 23.7314 31.5154 23.5936 31.617 23.492C31.7186 23.3904 31.8564 23.3334 32 23.3334C32.1437 23.3334 32.2815 23.3904 32.383 23.492C32.4846 23.5936 32.5417 23.7314 32.5417 23.875V24.4167H33.625C33.7687 24.4167 33.9065 24.4738 34.008 24.5753C34.1096 24.6769 34.1667 24.8147 34.1667 24.9584C34.1667 25.102 34.1096 25.2398 34.008 25.3414C33.9065 25.443 33.7687 25.5 33.625 25.5H31.4584C31.3147 25.5 31.1769 25.5571 31.0753 25.6587C30.9738 25.7603 30.9167 25.898 30.9167 26.0417C30.9167 26.1853 30.9738 26.3231 31.0753 26.4247C31.1769 26.5263 31.3147 26.5834 31.4584 26.5834Z" fill="url(#paint0_radial_478_770)"/>
<path d="M29.8418 36.6264C29.8401 36.6246 29.8377 36.6241 29.8361 36.6223C29.8344 36.6206 29.8336 36.6177 29.8317 36.6158L27.1509 33.9339C26.9471 33.7333 26.6723 33.6215 26.3863 33.6227C26.1004 33.6239 25.8265 33.738 25.6244 33.9403C25.4223 34.1425 25.3083 34.4165 25.3073 34.7024C25.3063 34.9884 25.4183 35.2631 25.619 35.4668L25.6125 35.464L27.1758 37.0273C27.2273 37.0773 27.2684 37.137 27.2966 37.2031C27.3249 37.2691 27.3397 37.3401 27.3403 37.4119C27.3408 37.4838 27.3271 37.555 27.2998 37.6214C27.2726 37.6879 27.2324 37.7483 27.1816 37.7991C27.1308 37.8499 27.0705 37.8901 27.004 37.9173C26.9375 37.9445 26.8663 37.9583 26.7945 37.9577C26.7227 37.9572 26.6517 37.9423 26.5856 37.9141C26.5196 37.8859 26.4598 37.8448 26.4098 37.7932L23.3333 34.7083V30.9166C23.3333 30.6293 23.2192 30.3538 23.016 30.1506C22.8128 29.9474 22.5373 29.8333 22.25 29.8333C21.9627 29.8333 21.6871 29.9474 21.4839 30.1506C21.2808 30.3538 21.1666 30.6293 21.1666 30.9166V35.9722C21.1656 36.2073 21.2161 36.4399 21.3144 36.6535C21.4127 36.8671 21.5565 37.0567 21.7358 37.2089L26.5833 41.9901V42.2916C26.5833 42.3628 26.5972 42.4332 26.6245 42.499C26.6517 42.5647 26.6916 42.6245 26.7419 42.6748C26.7922 42.7251 26.8519 42.765 26.9176 42.7922C26.9834 42.8194 27.0538 42.8334 27.125 42.8333H30.375C30.4461 42.8334 30.5166 42.8194 30.5823 42.7922C30.648 42.765 30.7078 42.7251 30.7581 42.6748C30.8084 42.6245 30.8483 42.5647 30.8755 42.499C30.9027 42.4332 30.9167 42.3628 30.9166 42.2916V38.4058C30.9166 37.9808 30.7496 37.5727 30.4517 37.2696L29.8418 36.6264Z" fill="white"/>
<path d="M29.8418 36.6264C29.8401 36.6246 29.8377 36.6241 29.8361 36.6223C29.8344 36.6206 29.8336 36.6177 29.8317 36.6158L27.1509 33.9339C26.9471 33.7333 26.6723 33.6215 26.3863 33.6227C26.1004 33.6239 25.8265 33.738 25.6244 33.9403C25.4223 34.1425 25.3083 34.4165 25.3073 34.7024C25.3063 34.9884 25.4183 35.2631 25.619 35.4668L25.6125 35.464L27.1758 37.0273C27.2273 37.0773 27.2684 37.137 27.2966 37.2031C27.3249 37.2691 27.3397 37.3401 27.3403 37.4119C27.3408 37.4838 27.3271 37.555 27.2998 37.6214C27.2726 37.6879 27.2324 37.7483 27.1816 37.7991C27.1308 37.8499 27.0705 37.8901 27.004 37.9173C26.9375 37.9445 26.8663 37.9583 26.7945 37.9577C26.7227 37.9572 26.6517 37.9423 26.5856 37.9141C26.5196 37.8859 26.4598 37.8448 26.4098 37.7932L23.3333 34.7083V30.9166C23.3333 30.6293 23.2192 30.3538 23.016 30.1506C22.8128 29.9474 22.5373 29.8333 22.25 29.8333C21.9627 29.8333 21.6871 29.9474 21.4839 30.1506C21.2808 30.3538 21.1666 30.6293 21.1666 30.9166V35.9722C21.1656 36.2073 21.2161 36.4399 21.3144 36.6535C21.4127 36.8671 21.5565 37.0567 21.7358 37.2089L26.5833 41.9901V42.2916C26.5833 42.3628 26.5972 42.4332 26.6245 42.499C26.6517 42.5647 26.6916 42.6245 26.7419 42.6748C26.7922 42.7251 26.8519 42.765 26.9176 42.7922C26.9834 42.8194 27.0538 42.8334 27.125 42.8333H30.375C30.4461 42.8334 30.5166 42.8194 30.5823 42.7922C30.648 42.765 30.7078 42.7251 30.7581 42.6748C30.8084 42.6245 30.8483 42.5647 30.8755 42.499C30.9027 42.4332 30.9167 42.3628 30.9166 42.2916V38.4058C30.9166 37.9808 30.7496 37.5727 30.4517 37.2696L29.8418 36.6264Z" fill="url(#paint1_radial_478_770)"/>
<path d="M41.75 29.8333C41.4628 29.8336 41.1874 29.9478 40.9843 30.1509C40.7812 30.354 40.6669 30.6294 40.6666 30.9166V34.7083L37.5901 37.7933C37.4881 37.8923 37.3511 37.9472 37.2089 37.9461C37.0666 37.945 36.9306 37.8881 36.83 37.7875C36.7294 37.6869 36.6724 37.5508 36.6713 37.4086C36.6703 37.2664 36.7252 37.1294 36.8242 37.0273L38.3875 35.4639L38.3809 35.4668C38.4829 35.3665 38.5639 35.247 38.6195 35.1152C38.675 34.9834 38.7039 34.842 38.7045 34.699C38.7051 34.556 38.6774 34.4142 38.623 34.282C38.5685 34.1498 38.4885 34.0296 38.3874 33.9285C38.2863 33.8273 38.1662 33.7472 38.034 33.6926C37.9018 33.6381 37.7601 33.6103 37.6171 33.6108C37.4741 33.6113 37.3326 33.6401 37.2008 33.6956C37.069 33.751 36.9494 33.832 36.8491 33.9339L34.1682 36.6158C34.1663 36.6177 34.1658 36.6203 34.1639 36.6223C34.1619 36.6243 34.1598 36.6246 34.1582 36.6264L33.5483 37.2696C33.2503 37.5727 33.0834 37.9808 33.0833 38.4058V42.2916C33.0833 42.3628 33.0973 42.4332 33.1245 42.499C33.1517 42.5647 33.1916 42.6245 33.2419 42.6748C33.2922 42.7251 33.3519 42.765 33.4176 42.7922C33.4834 42.8194 33.5538 42.8334 33.625 42.8333H36.875C36.9461 42.8334 37.0166 42.8194 37.0823 42.7922C37.1481 42.765 37.2078 42.7251 37.2581 42.6748C37.3084 42.6245 37.3483 42.5647 37.3755 42.499C37.4027 42.4332 37.4167 42.3628 37.4166 42.2916V41.9901L42.2641 37.2089C42.4434 37.0567 42.5872 36.8671 42.6856 36.6535C42.7839 36.4399 42.8343 36.2073 42.8333 35.9722V30.9166C42.833 30.6294 42.7188 30.354 42.5157 30.1509C42.3126 29.9478 42.0372 29.8336 41.75 29.8333Z" fill="white"/>
<path d="M41.75 29.8333C41.4628 29.8336 41.1874 29.9478 40.9843 30.1509C40.7812 30.354 40.6669 30.6294 40.6666 30.9166V34.7083L37.5901 37.7933C37.4881 37.8923 37.3511 37.9472 37.2089 37.9461C37.0666 37.945 36.9306 37.8881 36.83 37.7875C36.7294 37.6869 36.6724 37.5508 36.6713 37.4086C36.6703 37.2664 36.7252 37.1294 36.8242 37.0273L38.3875 35.4639L38.3809 35.4668C38.4829 35.3665 38.5639 35.247 38.6195 35.1152C38.675 34.9834 38.7039 34.842 38.7045 34.699C38.7051 34.556 38.6774 34.4142 38.623 34.282C38.5685 34.1498 38.4885 34.0296 38.3874 33.9285C38.2863 33.8273 38.1662 33.7472 38.034 33.6926C37.9018 33.6381 37.7601 33.6103 37.6171 33.6108C37.4741 33.6113 37.3326 33.6401 37.2008 33.6956C37.069 33.751 36.9494 33.832 36.8491 33.9339L34.1682 36.6158C34.1663 36.6177 34.1658 36.6203 34.1639 36.6223C34.1619 36.6243 34.1598 36.6246 34.1582 36.6264L33.5483 37.2696C33.2503 37.5727 33.0834 37.9808 33.0833 38.4058V42.2916C33.0833 42.3628 33.0973 42.4332 33.1245 42.499C33.1517 42.5647 33.1916 42.6245 33.2419 42.6748C33.2922 42.7251 33.3519 42.765 33.4176 42.7922C33.4834 42.8194 33.5538 42.8334 33.625 42.8333H36.875C36.9461 42.8334 37.0166 42.8194 37.0823 42.7922C37.1481 42.765 37.2078 42.7251 37.2581 42.6748C37.3084 42.6245 37.3483 42.5647 37.3755 42.499C37.4027 42.4332 37.4167 42.3628 37.4166 42.2916V41.9901L42.2641 37.2089C42.4434 37.0567 42.5872 36.8671 42.6856 36.6535C42.7839 36.4399 42.8343 36.2073 42.8333 35.9722V30.9166C42.833 30.6294 42.7188 30.354 42.5157 30.1509C42.3126 29.9478 42.0372 29.8336 41.75 29.8333Z" fill="url(#paint2_radial_478_770)"/>
</g>
</g>
<rect x="0.5" y="0.5" width="63" height="63" rx="15.5" stroke="#292929"/>
<defs>
<radialGradient id="paint0_radial_478_770" cx="0" cy="0" r="1" gradientUnits="userSpaceOnUse" gradientTransform="translate(32 38.5714) rotate(-90) scale(18.5807 44.7978)">
<stop offset="0.0628645" stop-color="#2E2E2E" stop-opacity="0.5"/>
<stop offset="1" stop-color="#C8C8C8"/>
</radialGradient>
<radialGradient id="paint1_radial_478_770" cx="0" cy="0" r="1" gradientUnits="userSpaceOnUse" gradientTransform="translate(26.0416 48.8203) rotate(-90) scale(20.2698 36.6528)">
<stop offset="0.0628645" stop-color="#2E2E2E" stop-opacity="0.5"/>
<stop offset="1" stop-color="#C8C8C8"/>
</radialGradient>
<radialGradient id="paint2_radial_478_770" cx="0" cy="0" r="1" gradientUnits="userSpaceOnUse" gradientTransform="translate(37.9583 48.8203) rotate(-90) scale(20.2698 36.6528)">
<stop offset="0.0628645" stop-color="#2E2E2E" stop-opacity="0.5"/>
<stop offset="1" stop-color="#C8C8C8"/>
</radialGradient>
<clipPath id="clip0_478_770">
<rect width="64" height="64" rx="16" fill="white"/>
</clipPath>
<clipPath id="clip1_478_770">
<rect width="64" height="64" fill="white"/>
</clipPath>
</defs>
</svg>
