<svg width="64" height="64" viewBox="0 0 64 64" fill="none" xmlns="http://www.w3.org/2000/svg">
<g clip-path="url(#clip0_478_858)">
<g clip-path="url(#clip1_478_858)">
<mask id="mask0_478_858" style="mask-type:luminance" maskUnits="userSpaceOnUse" x="0" y="0" width="64" height="64">
<path d="M64 0H0V64H64V0Z" fill="white"/>
</mask>
<g mask="url(#mask0_478_858)">
<path d="M64 0H0V64H64V0Z" fill="#FFC933" fill-opacity="0.04"/>
</g>
<g clip-path="url(#clip2_478_858)">
<path d="M38.9489 43.7752C38.2795 43.4768 37.6889 43.0264 37.2241 42.4598C36.7594 41.8931 36.4333 41.2258 36.2717 40.5109C36.2566 40.446 36.221 40.3876 36.1702 40.3444C35.6688 39.9108 35.2486 39.3915 34.9291 38.8108C34.8029 38.5882 34.7424 38.3343 34.7547 38.0787C34.767 37.8231 34.8515 37.5763 34.9985 37.3668C35.1454 37.1573 35.3488 36.9938 35.585 36.8952C35.8211 36.7967 36.0804 36.7671 36.3327 36.81C36.4961 36.8397 36.6624 36.8499 36.8283 36.8405C36.873 36.8378 36.9165 36.8253 36.9559 36.8039C36.9952 36.7825 37.0293 36.7527 37.0558 36.7166C37.6975 35.8387 38.6319 35.2191 39.6903 34.9697C39.7564 34.9538 39.8152 34.9161 39.8572 34.8626C39.8993 34.8092 39.922 34.7431 39.9219 34.6752V32.453C39.9218 32.3795 39.8953 32.3084 39.8472 32.2529C39.7991 32.1973 39.7326 32.1609 39.6598 32.1503C39.4831 32.1239 39.3267 32.0955 39.1825 32.0609C38.5789 31.9151 38.0065 31.6619 37.4925 31.3134C37.4365 31.2734 37.3681 31.2546 37.2995 31.2606C36.5538 31.3037 35.8065 31.2115 35.0936 30.9884C33.9725 30.6986 33.7231 29.0884 34.7036 28.4717C34.8919 28.3443 35.0626 28.1927 35.2114 28.0208C35.2405 27.9879 35.262 27.949 35.2743 27.9069C35.2866 27.8647 35.2894 27.8204 35.2825 27.777C35.1449 26.8136 35.2815 25.8308 35.6766 24.9414C36.0278 24.1416 36.5779 23.4449 37.2744 22.9177C37.9709 22.3904 38.7906 22.0501 39.6558 21.9291C39.7308 21.918 39.799 21.8795 39.847 21.8209C39.8951 21.7623 39.9196 21.6879 39.9158 21.6122C39.8839 20.9082 39.5816 20.2437 39.0719 19.757C38.5622 19.2704 37.8844 18.9992 37.1797 19H26.8203C26.0934 19.0011 25.3965 19.2903 24.8825 19.8044C24.3685 20.3184 24.0792 21.0152 24.0781 21.7422V26.2719C24.0786 26.3145 24.0879 26.3565 24.1054 26.3953C24.123 26.4342 24.1484 26.4689 24.1801 26.4974C24.2119 26.5258 24.2491 26.5474 24.2896 26.5607C24.3301 26.574 24.3729 26.5787 24.4153 26.5745C24.6481 26.5498 24.882 26.5369 25.1161 26.5359C26.4006 26.5371 27.6577 26.908 28.7371 27.6042C29.8166 28.3005 30.6729 29.2927 31.2038 30.4623C31.2212 30.5015 31.2466 30.5366 31.2785 30.5653C31.3103 30.594 31.3478 30.6156 31.3886 30.6289C31.7801 30.7572 32.1893 30.823 32.6012 30.8239C32.9008 30.8253 33.1939 30.9114 33.4467 31.0721C33.6995 31.2329 33.9016 31.4619 34.0299 31.7326C34.1582 32.0034 34.2073 32.3049 34.1716 32.6023C34.1359 32.8998 34.0168 33.1811 33.8281 33.4138C33.1946 34.218 32.4101 34.8908 31.5186 35.3942C31.4534 35.4283 31.4034 35.4855 31.3784 35.5547C30.9022 36.8333 30.0457 37.9352 28.9243 38.7124C27.8029 39.4895 26.4703 39.9046 25.1059 39.9016C24.8752 39.8997 24.6447 39.8862 24.4153 39.8609C24.3729 39.8569 24.3301 39.8616 24.2897 39.8749C24.2492 39.8882 24.212 39.9098 24.1803 39.9382C24.1486 39.9667 24.1231 40.0014 24.1056 40.0402C24.088 40.079 24.0786 40.121 24.0781 40.1636V42.2578C24.0792 42.9848 24.3685 43.6816 24.8825 44.1956C25.3965 44.7097 26.0934 44.9989 26.8203 45H37.1797C37.8655 45.0001 38.5262 44.7419 39.0302 44.2769C39.0672 44.2427 39.0951 44.2 39.1116 44.1524C39.128 44.1048 39.1324 44.0539 39.1244 44.0042C39.1163 43.9545 39.0961 43.9075 39.0655 43.8676C39.0348 43.8276 38.9948 43.7959 38.9489 43.7752ZM30.0906 21.2344C29.8575 21.2271 29.6307 21.1568 29.4343 21.0309C29.238 20.905 29.0794 20.7282 28.9755 20.5194L28.488 19.6094H35.5141L35.0245 20.5194C34.9206 20.7282 34.762 20.905 34.5657 21.0309C34.3693 21.1568 34.1425 21.2271 33.9094 21.2344H30.0906ZM34.1328 42.3594H29.8672C29.7864 42.3594 29.7089 42.3273 29.6517 42.2701C29.5946 42.213 29.5625 42.1355 29.5625 42.0547C29.5625 41.9739 29.5946 41.8964 29.6517 41.8392C29.7089 41.7821 29.7864 41.75 29.8672 41.75H34.1328C34.2136 41.75 34.2911 41.7821 34.3483 41.8392C34.4054 41.8964 34.4375 41.9739 34.4375 42.0547C34.4375 42.1355 34.4054 42.213 34.3483 42.2701C34.2911 42.3273 34.2136 42.3594 34.1328 42.3594Z" fill="white"/>
<path d="M38.9489 43.7752C38.2795 43.4768 37.6889 43.0264 37.2241 42.4598C36.7594 41.8931 36.4333 41.2258 36.2717 40.5109C36.2566 40.446 36.221 40.3876 36.1702 40.3444C35.6688 39.9108 35.2486 39.3915 34.9291 38.8108C34.8029 38.5882 34.7424 38.3343 34.7547 38.0787C34.767 37.8231 34.8515 37.5763 34.9985 37.3668C35.1454 37.1573 35.3488 36.9938 35.585 36.8952C35.8211 36.7967 36.0804 36.7671 36.3327 36.81C36.4961 36.8397 36.6624 36.8499 36.8283 36.8405C36.873 36.8378 36.9165 36.8253 36.9559 36.8039C36.9952 36.7825 37.0293 36.7527 37.0558 36.7166C37.6975 35.8387 38.6319 35.2191 39.6903 34.9697C39.7564 34.9538 39.8152 34.9161 39.8572 34.8626C39.8993 34.8092 39.922 34.7431 39.9219 34.6752V32.453C39.9218 32.3795 39.8953 32.3084 39.8472 32.2529C39.7991 32.1973 39.7326 32.1609 39.6598 32.1503C39.4831 32.1239 39.3267 32.0955 39.1825 32.0609C38.5789 31.9151 38.0065 31.6619 37.4925 31.3134C37.4365 31.2734 37.3681 31.2546 37.2995 31.2606C36.5538 31.3037 35.8065 31.2115 35.0936 30.9884C33.9725 30.6986 33.7231 29.0884 34.7036 28.4717C34.8919 28.3443 35.0626 28.1927 35.2114 28.0208C35.2405 27.9879 35.262 27.949 35.2743 27.9069C35.2866 27.8647 35.2894 27.8204 35.2825 27.777C35.1449 26.8136 35.2815 25.8308 35.6766 24.9414C36.0278 24.1416 36.5779 23.4449 37.2744 22.9177C37.9709 22.3904 38.7906 22.0501 39.6558 21.9291C39.7308 21.918 39.799 21.8795 39.847 21.8209C39.8951 21.7623 39.9196 21.6879 39.9158 21.6122C39.8839 20.9082 39.5816 20.2437 39.0719 19.757C38.5622 19.2704 37.8844 18.9992 37.1797 19H26.8203C26.0934 19.0011 25.3965 19.2903 24.8825 19.8044C24.3685 20.3184 24.0792 21.0152 24.0781 21.7422V26.2719C24.0786 26.3145 24.0879 26.3565 24.1054 26.3953C24.123 26.4342 24.1484 26.4689 24.1801 26.4974C24.2119 26.5258 24.2491 26.5474 24.2896 26.5607C24.3301 26.574 24.3729 26.5787 24.4153 26.5745C24.6481 26.5498 24.882 26.5369 25.1161 26.5359C26.4006 26.5371 27.6577 26.908 28.7371 27.6042C29.8166 28.3005 30.6729 29.2927 31.2038 30.4623C31.2212 30.5015 31.2466 30.5366 31.2785 30.5653C31.3103 30.594 31.3478 30.6156 31.3886 30.6289C31.7801 30.7572 32.1893 30.823 32.6012 30.8239C32.9008 30.8253 33.1939 30.9114 33.4467 31.0721C33.6995 31.2329 33.9016 31.4619 34.0299 31.7326C34.1582 32.0034 34.2073 32.3049 34.1716 32.6023C34.1359 32.8998 34.0168 33.1811 33.8281 33.4138C33.1946 34.218 32.4101 34.8908 31.5186 35.3942C31.4534 35.4283 31.4034 35.4855 31.3784 35.5547C30.9022 36.8333 30.0457 37.9352 28.9243 38.7124C27.8029 39.4895 26.4703 39.9046 25.1059 39.9016C24.8752 39.8997 24.6447 39.8862 24.4153 39.8609C24.3729 39.8569 24.3301 39.8616 24.2897 39.8749C24.2492 39.8882 24.212 39.9098 24.1803 39.9382C24.1486 39.9667 24.1231 40.0014 24.1056 40.0402C24.088 40.079 24.0786 40.121 24.0781 40.1636V42.2578C24.0792 42.9848 24.3685 43.6816 24.8825 44.1956C25.3965 44.7097 26.0934 44.9989 26.8203 45H37.1797C37.8655 45.0001 38.5262 44.7419 39.0302 44.2769C39.0672 44.2427 39.0951 44.2 39.1116 44.1524C39.128 44.1048 39.1324 44.0539 39.1244 44.0042C39.1163 43.9545 39.0961 43.9075 39.0655 43.8676C39.0348 43.8276 38.9948 43.7959 38.9489 43.7752ZM30.0906 21.2344C29.8575 21.2271 29.6307 21.1568 29.4343 21.0309C29.238 20.905 29.0794 20.7282 28.9755 20.5194L28.488 19.6094H35.5141L35.0245 20.5194C34.9206 20.7282 34.762 20.905 34.5657 21.0309C34.3693 21.1568 34.1425 21.2271 33.9094 21.2344H30.0906ZM34.1328 42.3594H29.8672C29.7864 42.3594 29.7089 42.3273 29.6517 42.2701C29.5946 42.213 29.5625 42.1355 29.5625 42.0547C29.5625 41.9739 29.5946 41.8964 29.6517 41.8392C29.7089 41.7821 29.7864 41.75 29.8672 41.75H34.1328C34.2136 41.75 34.2911 41.7821 34.3483 41.8392C34.4054 41.8964 34.4375 41.9739 34.4375 42.0547C34.4375 42.1355 34.4054 42.213 34.3483 42.2701C34.2911 42.3273 34.2136 42.3594 34.1328 42.3594Z" fill="url(#paint0_radial_478_858)"/>
<path d="M40.4263 39.9219H41.2311L41.4488 39.1094H40.644L40.4263 39.9219Z" fill="white"/>
<path d="M40.4263 39.9219H41.2311L41.4488 39.1094H40.644L40.4263 39.9219Z" fill="url(#paint1_radial_478_858)"/>
<path d="M39.2755 35.7375C38.4805 36.0569 37.8094 36.6239 37.3617 37.3544C37.3549 37.365 37.346 37.3741 37.3355 37.3811C37.325 37.3881 37.3132 37.3929 37.3008 37.395C36.9465 37.4669 36.5819 37.4724 36.2256 37.4115C36.0875 37.388 35.9455 37.4042 35.8162 37.4582C35.6869 37.5123 35.5756 37.6019 35.4952 37.7166C35.4148 37.8314 35.3687 37.9666 35.3621 38.1066C35.3555 38.2465 35.3888 38.3855 35.458 38.5073C35.7831 39.1091 36.2333 39.6343 36.7783 40.0476C36.7878 40.0542 36.7959 40.0626 36.8021 40.0723C36.8083 40.0821 36.8125 40.0929 36.8145 40.1043C37.1003 42.0632 38.9442 43.6133 40.8691 43.5921C41.606 43.5838 42.3267 43.3749 42.9539 42.9881C43.5812 42.6012 44.0913 42.0508 44.4295 41.3961C44.7677 40.7413 44.9213 40.0068 44.8737 39.2714C44.8262 38.5359 44.5794 37.8273 44.1597 37.2215C43.6329 36.4589 42.8634 35.897 41.9765 35.6275C41.0896 35.3581 40.1376 35.3968 39.2755 35.7375ZM42.6641 39.1094H42.0797L41.8621 39.9219H42.4609C42.5418 39.9219 42.6193 39.954 42.6764 40.0111C42.7335 40.0683 42.7656 40.1458 42.7656 40.2266C42.7656 40.3074 42.7335 40.3849 42.6764 40.442C42.6193 40.4992 42.5418 40.5313 42.4609 40.5313H41.6988L41.504 41.2578C41.4937 41.2965 41.4758 41.3328 41.4514 41.3645C41.427 41.3963 41.3966 41.423 41.362 41.443C41.3273 41.463 41.289 41.476 41.2493 41.4812C41.2096 41.4865 41.1693 41.4838 41.1306 41.4735C41.0919 41.4631 41.0556 41.4452 41.0239 41.4208C40.9921 41.3965 40.9655 41.3661 40.9454 41.3314C40.9254 41.2967 40.9124 41.2584 40.9072 41.2187C40.902 41.179 40.9046 41.1387 40.915 41.1L41.0673 40.5313H40.2625L40.0655 41.2668C40.0551 41.3055 40.0373 41.3417 40.0129 41.3735C39.9885 41.4052 39.9581 41.4319 39.9234 41.4519C39.8888 41.4719 39.8505 41.4849 39.8108 41.4902C39.7711 41.4954 39.7307 41.4928 39.692 41.4824C39.6534 41.472 39.6171 41.4541 39.5853 41.4298C39.5536 41.4054 39.5269 41.375 39.5069 41.3403C39.4869 41.3056 39.4739 41.2674 39.4687 41.2277C39.4634 41.188 39.4661 41.1476 39.4764 41.1089L39.6312 40.5313H39.2109C39.1301 40.5313 39.0526 40.4992 38.9955 40.442C38.9384 40.3849 38.9063 40.3074 38.9063 40.2266C38.9063 40.1458 38.9384 40.0683 38.9955 40.0111C39.0526 39.954 39.1301 39.9219 39.2109 39.9219H39.7953L40.0129 39.1094H39.4141C39.3333 39.1094 39.2558 39.0773 39.1986 39.0201C39.1415 38.963 39.1094 38.8855 39.1094 38.8047C39.1094 38.7239 39.1415 38.6464 39.1986 38.5892C39.2558 38.5321 39.3333 38.5 39.4141 38.5H40.1762L40.371 37.7734C40.3919 37.6953 40.443 37.6287 40.5131 37.5883C40.5831 37.5478 40.6663 37.5369 40.7444 37.5578C40.8226 37.5787 40.8892 37.6298 40.9296 37.6999C40.97 37.7699 40.981 37.8531 40.9601 37.9313L40.8077 38.5H41.6125L41.8095 37.7645C41.8199 37.7258 41.8378 37.6896 41.8621 37.6578C41.8865 37.626 41.9169 37.5994 41.9516 37.5793C41.9863 37.5593 42.0246 37.5463 42.0643 37.5411C42.104 37.5359 42.1443 37.5385 42.183 37.5489C42.2217 37.5592 42.2579 37.5771 42.2897 37.6015C42.3214 37.6259 42.3481 37.6563 42.3681 37.6909C42.3881 37.7256 42.4011 37.7639 42.4064 37.8036C42.4116 37.8433 42.409 37.8836 42.3986 37.9223L42.243 38.5H42.6641C42.7449 38.5 42.8224 38.5321 42.8795 38.5892C42.9367 38.6464 42.9688 38.7239 42.9688 38.8047C42.9688 38.8855 42.9367 38.963 42.8795 39.0201C42.8224 39.0773 42.7449 39.1094 42.6641 39.1094Z" fill="white"/>
<path d="M39.2755 35.7375C38.4805 36.0569 37.8094 36.6239 37.3617 37.3544C37.3549 37.365 37.346 37.3741 37.3355 37.3811C37.325 37.3881 37.3132 37.3929 37.3008 37.395C36.9465 37.4669 36.5819 37.4724 36.2256 37.4115C36.0875 37.388 35.9455 37.4042 35.8162 37.4582C35.6869 37.5123 35.5756 37.6019 35.4952 37.7166C35.4148 37.8314 35.3687 37.9666 35.3621 38.1066C35.3555 38.2465 35.3888 38.3855 35.458 38.5073C35.7831 39.1091 36.2333 39.6343 36.7783 40.0476C36.7878 40.0542 36.7959 40.0626 36.8021 40.0723C36.8083 40.0821 36.8125 40.0929 36.8145 40.1043C37.1003 42.0632 38.9442 43.6133 40.8691 43.5921C41.606 43.5838 42.3267 43.3749 42.9539 42.9881C43.5812 42.6012 44.0913 42.0508 44.4295 41.3961C44.7677 40.7413 44.9213 40.0068 44.8737 39.2714C44.8262 38.5359 44.5794 37.8273 44.1597 37.2215C43.6329 36.4589 42.8634 35.897 41.9765 35.6275C41.0896 35.3581 40.1376 35.3968 39.2755 35.7375ZM42.6641 39.1094H42.0797L41.8621 39.9219H42.4609C42.5418 39.9219 42.6193 39.954 42.6764 40.0111C42.7335 40.0683 42.7656 40.1458 42.7656 40.2266C42.7656 40.3074 42.7335 40.3849 42.6764 40.442C42.6193 40.4992 42.5418 40.5313 42.4609 40.5313H41.6988L41.504 41.2578C41.4937 41.2965 41.4758 41.3328 41.4514 41.3645C41.427 41.3963 41.3966 41.423 41.362 41.443C41.3273 41.463 41.289 41.476 41.2493 41.4812C41.2096 41.4865 41.1693 41.4838 41.1306 41.4735C41.0919 41.4631 41.0556 41.4452 41.0239 41.4208C40.9921 41.3965 40.9655 41.3661 40.9454 41.3314C40.9254 41.2967 40.9124 41.2584 40.9072 41.2187C40.902 41.179 40.9046 41.1387 40.915 41.1L41.0673 40.5313H40.2625L40.0655 41.2668C40.0551 41.3055 40.0373 41.3417 40.0129 41.3735C39.9885 41.4052 39.9581 41.4319 39.9234 41.4519C39.8888 41.4719 39.8505 41.4849 39.8108 41.4902C39.7711 41.4954 39.7307 41.4928 39.692 41.4824C39.6534 41.472 39.6171 41.4541 39.5853 41.4298C39.5536 41.4054 39.5269 41.375 39.5069 41.3403C39.4869 41.3056 39.4739 41.2674 39.4687 41.2277C39.4634 41.188 39.4661 41.1476 39.4764 41.1089L39.6312 40.5313H39.2109C39.1301 40.5313 39.0526 40.4992 38.9955 40.442C38.9384 40.3849 38.9063 40.3074 38.9063 40.2266C38.9063 40.1458 38.9384 40.0683 38.9955 40.0111C39.0526 39.954 39.1301 39.9219 39.2109 39.9219H39.7953L40.0129 39.1094H39.4141C39.3333 39.1094 39.2558 39.0773 39.1986 39.0201C39.1415 38.963 39.1094 38.8855 39.1094 38.8047C39.1094 38.7239 39.1415 38.6464 39.1986 38.5892C39.2558 38.5321 39.3333 38.5 39.4141 38.5H40.1762L40.371 37.7734C40.3919 37.6953 40.443 37.6287 40.5131 37.5883C40.5831 37.5478 40.6663 37.5369 40.7444 37.5578C40.8226 37.5787 40.8892 37.6298 40.9296 37.6999C40.97 37.7699 40.981 37.8531 40.9601 37.9313L40.8077 38.5H41.6125L41.8095 37.7645C41.8199 37.7258 41.8378 37.6896 41.8621 37.6578C41.8865 37.626 41.9169 37.5994 41.9516 37.5793C41.9863 37.5593 42.0246 37.5463 42.0643 37.5411C42.104 37.5359 42.1443 37.5385 42.183 37.5489C42.2217 37.5592 42.2579 37.5771 42.2897 37.6015C42.3214 37.6259 42.3481 37.6563 42.3681 37.6909C42.3881 37.7256 42.4011 37.7639 42.4064 37.8036C42.4116 37.8433 42.409 37.8836 42.3986 37.9223L42.243 38.5H42.6641C42.7449 38.5 42.8224 38.5321 42.8795 38.5892C42.9367 38.6464 42.9688 38.7239 42.9688 38.8047C42.9688 38.8855 42.9367 38.963 42.8795 39.0201C42.8224 39.0773 42.7449 39.1094 42.6641 39.1094Z" fill="url(#paint2_radial_478_858)"/>
<path d="M36.2348 25.1876C35.8418 26.0671 35.7387 27.0488 35.9402 27.9907C35.9443 28.0108 35.9443 28.0315 35.94 28.0515C35.9357 28.0716 35.9274 28.0905 35.9154 28.1071C35.6822 28.4484 35.3877 28.7434 35.0469 28.9771C34.9228 29.0626 34.8253 29.1814 34.7656 29.3197C34.7059 29.4581 34.6864 29.6105 34.7093 29.7594C34.7322 29.9084 34.7966 30.0479 34.8952 30.1619C34.9937 30.2759 35.1224 30.3598 35.2665 30.4041C35.9923 30.6392 36.7604 30.7144 37.5181 30.6247C37.5353 30.6221 37.5529 30.623 37.5697 30.6273C37.5866 30.6315 37.6025 30.639 37.6164 30.6494C38.4183 31.2602 39.3972 31.5931 40.4051 31.598C43.7439 31.6133 45.9876 27.9601 44.4447 24.9623C42.7114 21.5962 37.771 21.7101 36.2348 25.1876ZM40.7086 29.0827C40.6235 29.131 40.5275 29.1563 40.4297 29.1563C40.3319 29.1563 40.2358 29.131 40.1508 29.0827C38.9591 28.4053 38.282 27.5642 38.3109 26.498C38.3102 26.341 38.3404 26.1853 38.3998 26.04C38.4592 25.8947 38.5467 25.7625 38.6572 25.6509C38.7677 25.5394 38.8991 25.4507 39.0439 25.39C39.1887 25.3292 39.344 25.2976 39.501 25.2969C39.6798 25.2968 39.8562 25.3373 40.0171 25.4153C40.178 25.4933 40.319 25.6068 40.4297 25.7472C40.5403 25.6068 40.6814 25.4933 40.8423 25.4153C41.0031 25.3373 41.1796 25.2968 41.3584 25.2969C41.5154 25.2976 41.6707 25.3292 41.8155 25.39C41.9603 25.4507 42.0917 25.5394 42.2022 25.6509C42.3127 25.7625 42.4002 25.8947 42.4596 26.04C42.519 26.1853 42.5492 26.341 42.5485 26.498C42.5783 27.5642 41.9003 28.4047 40.7086 29.0827Z" fill="white"/>
<path d="M36.2348 25.1876C35.8418 26.0671 35.7387 27.0488 35.9402 27.9907C35.9443 28.0108 35.9443 28.0315 35.94 28.0515C35.9357 28.0716 35.9274 28.0905 35.9154 28.1071C35.6822 28.4484 35.3877 28.7434 35.0469 28.9771C34.9228 29.0626 34.8253 29.1814 34.7656 29.3197C34.7059 29.4581 34.6864 29.6105 34.7093 29.7594C34.7322 29.9084 34.7966 30.0479 34.8952 30.1619C34.9937 30.2759 35.1224 30.3598 35.2665 30.4041C35.9923 30.6392 36.7604 30.7144 37.5181 30.6247C37.5353 30.6221 37.5529 30.623 37.5697 30.6273C37.5866 30.6315 37.6025 30.639 37.6164 30.6494C38.4183 31.2602 39.3972 31.5931 40.4051 31.598C43.7439 31.6133 45.9876 27.9601 44.4447 24.9623C42.7114 21.5962 37.771 21.7101 36.2348 25.1876ZM40.7086 29.0827C40.6235 29.131 40.5275 29.1563 40.4297 29.1563C40.3319 29.1563 40.2358 29.131 40.1508 29.0827C38.9591 28.4053 38.282 27.5642 38.3109 26.498C38.3102 26.341 38.3404 26.1853 38.3998 26.04C38.4592 25.8947 38.5467 25.7625 38.6572 25.6509C38.7677 25.5394 38.8991 25.4507 39.0439 25.39C39.1887 25.3292 39.344 25.2976 39.501 25.2969C39.6798 25.2968 39.8562 25.3373 40.0171 25.4153C40.178 25.4933 40.319 25.6068 40.4297 25.7472C40.5403 25.6068 40.6814 25.4933 40.8423 25.4153C41.0031 25.3373 41.1796 25.2968 41.3584 25.2969C41.5154 25.2976 41.6707 25.3292 41.8155 25.39C41.9603 25.4507 42.0917 25.5394 42.2022 25.6509C42.3127 25.7625 42.4002 25.8947 42.4596 26.04C42.519 26.1853 42.5492 26.341 42.5485 26.498C42.5783 27.5642 41.9003 28.4047 40.7086 29.0827Z" fill="url(#paint3_radial_478_858)"/>
<path d="M30.8828 35.1265C30.8952 35.0904 30.9146 35.0571 30.9399 35.0286C30.9652 35 30.9959 34.9768 31.0303 34.9601C31.9363 34.4909 32.7301 33.8312 33.3571 33.0262C33.4724 32.8828 33.545 32.7098 33.5666 32.5271C33.5881 32.3443 33.5577 32.1592 33.4788 31.993C33.4 31.8267 33.2758 31.686 33.1207 31.5871C32.9656 31.4881 32.7857 31.4349 32.6017 31.4335C32.0271 31.4305 31.458 31.3208 30.9234 31.1101C30.8834 31.095 30.8469 31.0719 30.8161 31.0422C30.7853 31.0125 30.761 30.9768 30.7445 30.9373C30.2622 29.7464 29.414 28.7395 28.3222 28.062C24.0284 25.3706 18.5217 28.9432 19.089 33.9541C19.4243 36.9156 22.1641 39.3621 25.1181 39.3003C27.6105 39.3548 30.1254 37.5719 30.8828 35.1265ZM23.6719 35.8027C23.5795 35.8568 23.4743 35.8854 23.3672 35.8854H22.5547C22.3931 35.8854 22.2381 35.8212 22.1238 35.7069C22.0095 35.5926 21.9453 35.4376 21.9453 35.276V32.2291C21.9453 32.0675 22.0095 31.9125 22.1238 31.7982C22.2381 31.684 22.3931 31.6198 22.5547 31.6198H23.3672C23.4741 31.6196 23.5792 31.6476 23.6719 31.701V35.8027ZM24.2813 35.5297V31.8804C24.878 31.3266 25.2619 30.1993 25.5177 29.6679C25.9678 28.7319 26.8746 29.9874 26.6529 30.6632C26.5764 30.8972 26.4141 31.6179 26.4141 31.6179C26.8989 31.6179 27.3639 31.8105 27.7068 32.1534C28.0496 32.4962 28.2422 32.9612 28.2422 33.4461V34.0554C28.2422 34.5403 28.0496 35.0053 27.7068 35.3481C27.3639 35.6909 26.8989 35.8836 26.4141 35.8836H25.2798C25.0906 35.8835 24.904 35.8394 24.7348 35.7548L24.2813 35.5297Z" fill="white"/>
<path d="M30.8828 35.1265C30.8952 35.0904 30.9146 35.0571 30.9399 35.0286C30.9652 35 30.9959 34.9768 31.0303 34.9601C31.9363 34.4909 32.7301 33.8312 33.3571 33.0262C33.4724 32.8828 33.545 32.7098 33.5666 32.5271C33.5881 32.3443 33.5577 32.1592 33.4788 31.993C33.4 31.8267 33.2758 31.686 33.1207 31.5871C32.9656 31.4881 32.7857 31.4349 32.6017 31.4335C32.0271 31.4305 31.458 31.3208 30.9234 31.1101C30.8834 31.095 30.8469 31.0719 30.8161 31.0422C30.7853 31.0125 30.761 30.9768 30.7445 30.9373C30.2622 29.7464 29.414 28.7395 28.3222 28.062C24.0284 25.3706 18.5217 28.9432 19.089 33.9541C19.4243 36.9156 22.1641 39.3621 25.1181 39.3003C27.6105 39.3548 30.1254 37.5719 30.8828 35.1265ZM23.6719 35.8027C23.5795 35.8568 23.4743 35.8854 23.3672 35.8854H22.5547C22.3931 35.8854 22.2381 35.8212 22.1238 35.7069C22.0095 35.5926 21.9453 35.4376 21.9453 35.276V32.2291C21.9453 32.0675 22.0095 31.9125 22.1238 31.7982C22.2381 31.684 22.3931 31.6198 22.5547 31.6198H23.3672C23.4741 31.6196 23.5792 31.6476 23.6719 31.701V35.8027ZM24.2813 35.5297V31.8804C24.878 31.3266 25.2619 30.1993 25.5177 29.6679C25.9678 28.7319 26.8746 29.9874 26.6529 30.6632C26.5764 30.8972 26.4141 31.6179 26.4141 31.6179C26.8989 31.6179 27.3639 31.8105 27.7068 32.1534C28.0496 32.4962 28.2422 32.9612 28.2422 33.4461V34.0554C28.2422 34.5403 28.0496 35.0053 27.7068 35.3481C27.3639 35.6909 26.8989 35.8836 26.4141 35.8836H25.2798C25.0906 35.8835 24.904 35.8394 24.7348 35.7548L24.2813 35.5297Z" fill="url(#paint4_radial_478_858)"/>
</g>
</g>
</g>
<rect x="0.5" y="0.5" width="63" height="63" rx="15.5" stroke="#292929"/>
<defs>
<radialGradient id="paint0_radial_478_858" cx="0" cy="0" r="1" gradientUnits="userSpaceOnUse" gradientTransform="translate(31.9999 56.9739) rotate(-90) scale(40.5397 59.5607)">
<stop offset="0.0628645" stop-color="#2E2E2E" stop-opacity="0.5"/>
<stop offset="1" stop-color="#C8C8C8"/>
</radialGradient>
<radialGradient id="paint1_radial_478_858" cx="0" cy="0" r="1" gradientUnits="userSpaceOnUse" gradientTransform="translate(40.9375 40.2961) rotate(-90) scale(1.26687 3.84395)">
<stop offset="0.0628645" stop-color="#2E2E2E" stop-opacity="0.5"/>
<stop offset="1" stop-color="#C8C8C8"/>
</radialGradient>
<radialGradient id="paint2_radial_478_858" cx="0" cy="0" r="1" gradientUnits="userSpaceOnUse" gradientTransform="translate(40.1217 47.3421) rotate(-90) scale(12.6952 35.7916)">
<stop offset="0.0628645" stop-color="#2E2E2E" stop-opacity="0.5"/>
<stop offset="1" stop-color="#C8C8C8"/>
</radialGradient>
<radialGradient id="paint3_radial_478_858" cx="0" cy="0" r="1" gradientUnits="userSpaceOnUse" gradientTransform="translate(39.8209 35.7848) rotate(-90) scale(14.175 38.5019)">
<stop offset="0.0628645" stop-color="#2E2E2E" stop-opacity="0.5"/>
<stop offset="1" stop-color="#C8C8C8"/>
</radialGradient>
<radialGradient id="paint4_radial_478_858" cx="0" cy="0" r="1" gradientUnits="userSpaceOnUse" gradientTransform="translate(26.3108 44.9025) rotate(-90) scale(18.9629 54.6025)">
<stop offset="0.0628645" stop-color="#2E2E2E" stop-opacity="0.5"/>
<stop offset="1" stop-color="#C8C8C8"/>
</radialGradient>
<clipPath id="clip0_478_858">
<rect width="64" height="64" rx="16" fill="white"/>
</clipPath>
<clipPath id="clip1_478_858">
<rect width="64" height="64" fill="white"/>
</clipPath>
<clipPath id="clip2_478_858">
<rect width="26" height="26" fill="white" transform="translate(19 19)"/>
</clipPath>
</defs>
</svg>
